<?xml version="1.0" encoding="UTF-8"?>
<svg xmlns="http://www.w3.org/2000/svg" xmlns:xlink="http://www.w3.org/1999/xlink" width="288px" height="252px" viewBox="0 0 288 252" version="1.1" id="Fig:dens">
  <metadata xmlns:gridsvg="http://www.stat.auckland.ac.nz/~paul/R/gridSVG/">
    <gridsvg:generator name="gridSVG" version="1.6-0" time="2018-04-16 17:27:53"/>
    <gridsvg:argument name="name" value="quality.abatch/dens.svg"/>
    <gridsvg:argument name="exportCoords" value="none"/>
    <gridsvg:argument name="exportMappings" value="none"/>
    <gridsvg:argument name="exportJS" value="none"/>
    <gridsvg:argument name="res" value="72"/>
    <gridsvg:argument name="prefix" value="Fig:dens"/>
    <gridsvg:argument name="addClasses" value="FALSE"/>
    <gridsvg:argument name="indent" value="TRUE"/>
    <gridsvg:argument name="htmlWrapper" value="FALSE"/>
    <gridsvg:argument name="usePaths" value="none"/>
    <gridsvg:argument name="uniqueNames" value="TRUE"/>
    <gridsvg:separator name="id.sep" value="."/>
    <gridsvg:separator name="gPath.sep" value="::"/>
    <gridsvg:separator name="vpPath.sep" value="::"/>
  </metadata>
  <g transform="translate(0, 252) scale(1, -1)">
    <g id="Fig:densgridSVG" fill="none" stroke="rgb(0,0,0)" stroke-dasharray="none" stroke-width="0.75" font-size="12" font-family="Helvetica, Arial, FreeSans, Liberation Sans, Nimbus Sans L, sans-serif" opacity="1" stroke-linecap="round" stroke-linejoin="round" stroke-miterlimit="10" stroke-opacity="1" fill-opacity="0" font-weight="normal" font-style="normal">
      <g id="Fig:densplot_01.background.1">
        <rect id="Fig:densplot_01.background.1.1" x="0" y="0" width="288" height="252" transform="" fill="none" stroke="none" stroke-opacity="0" fill-opacity="0"/>
      </g>
      <g id="Fig:densplot_01.toplevel.vp.1" font-size="12">
        <g id="Fig:densplot_01.ylab.vp.1">
          <g id="Fig:densplot_01.ylab.1">
            <g id="Fig:densplot_01.ylab.1.1" transform="translate(10.31, 138.09)" stroke-width="0.1">
              <g id="Fig:densplot_01.ylab.1.1.scale" transform="scale(1, -1)">
                <text x="0" y="0" id="Fig:densplot_01.ylab.1.1.text" transform="rotate(-90)" text-anchor="middle" opacity="1" stroke="rgb(0,0,0)" fill="rgb(0,0,0)" stroke-opacity="1" fill-opacity="1" font-size="12" font-weight="normal" font-style="normal">
                  <tspan id="Fig:densplot_01.ylab.1.1.tspan.1" dy="4.31" x="0">Density</tspan>
                </text>
              </g>
            </g>
          </g>
        </g>
        <g id="Fig:densplot_01.figure.vp.1"/>
        <defs>
          <clipPath id="Fig:densplot_01.panel.1.1.vp.1.clipPath">
            <rect x="44.8" y="42.19" width="231.2" height="191.81" fill="none" stroke="none"/>
          </clipPath>
        </defs>
        <g id="Fig:densplot_01.panel.1.1.vp.1" clip-path="url(#Fig:densplot_01.panel.1.1.vp.1.clipPath)"/>
        <g id="Fig:densplot_01.strip.1.1.off.vp.1"/>
        <g id="Fig:densplot_01.strip.left.1.1.off.vp.1">
          <g id="Fig:densplot_01.ticks.left.panel.1.1.1">
            <polyline id="Fig:densplot_01.ticks.left.panel.1.1.1.1" points="44.8,53.97 39.13,53.97" stroke="rgb(0,0,0)" opacity="1" stroke-dasharray="none" stroke-width="0.75" stroke-opacity="1" fill="none"/>
            <polyline id="Fig:densplot_01.ticks.left.panel.1.1.1.2" points="44.8,113.14 39.13,113.14" stroke="rgb(0,0,0)" opacity="1" stroke-dasharray="none" stroke-width="0.75" stroke-opacity="1" fill="none"/>
            <polyline id="Fig:densplot_01.ticks.left.panel.1.1.1.3" points="44.8,172.31 39.13,172.31" stroke="rgb(0,0,0)" opacity="1" stroke-dasharray="none" stroke-width="0.75" stroke-opacity="1" fill="none"/>
            <polyline id="Fig:densplot_01.ticks.left.panel.1.1.1.4" points="44.8,231.48 39.13,231.48" stroke="rgb(0,0,0)" opacity="1" stroke-dasharray="none" stroke-width="0.75" stroke-opacity="1" fill="none"/>
          </g>
          <g id="Fig:densplot_01.ticklabels.left.panel.1.1.1">
            <g id="Fig:densplot_01.ticklabels.left.panel.1.1.1.1" transform="translate(33.47, 53.97)" stroke-width="0.1">
              <g id="Fig:densplot_01.ticklabels.left.panel.1.1.1.1.scale" transform="scale(1, -1)">
                <text x="0" y="0" id="Fig:densplot_01.ticklabels.left.panel.1.1.1.1.text" transform="rotate(-90)" text-anchor="middle" stroke="rgb(0,0,0)" opacity="1" fill="rgb(0,0,0)" stroke-opacity="1" fill-opacity="1" font-size="9.6" font-weight="normal" font-style="normal">
                  <tspan id="Fig:densplot_01.ticklabels.left.panel.1.1.1.1.tspan.1" dy="0" x="0">0.000</tspan>
                </text>
              </g>
            </g>
            <g id="Fig:densplot_01.ticklabels.left.panel.1.1.1.2" transform="translate(33.47, 113.14)" stroke-width="0.1">
              <g id="Fig:densplot_01.ticklabels.left.panel.1.1.1.2.scale" transform="scale(1, -1)">
                <text x="0" y="0" id="Fig:densplot_01.ticklabels.left.panel.1.1.1.2.text" transform="rotate(-90)" text-anchor="middle" stroke="rgb(0,0,0)" opacity="1" fill="rgb(0,0,0)" stroke-opacity="1" fill-opacity="1" font-size="9.6" font-weight="normal" font-style="normal">
                  <tspan id="Fig:densplot_01.ticklabels.left.panel.1.1.1.2.tspan.1" dy="0" x="0">0.005</tspan>
                </text>
              </g>
            </g>
            <g id="Fig:densplot_01.ticklabels.left.panel.1.1.1.3" transform="translate(33.47, 172.31)" stroke-width="0.1">
              <g id="Fig:densplot_01.ticklabels.left.panel.1.1.1.3.scale" transform="scale(1, -1)">
                <text x="0" y="0" id="Fig:densplot_01.ticklabels.left.panel.1.1.1.3.text" transform="rotate(-90)" text-anchor="middle" stroke="rgb(0,0,0)" opacity="1" fill="rgb(0,0,0)" stroke-opacity="1" fill-opacity="1" font-size="9.6" font-weight="normal" font-style="normal">
                  <tspan id="Fig:densplot_01.ticklabels.left.panel.1.1.1.3.tspan.1" dy="0" x="0">0.010</tspan>
                </text>
              </g>
            </g>
          </g>
        </g>
        <g id="Fig:densplot_01.panel.1.1.off.vp.1">
          <g id="Fig:densplot_01.ticks.bottom.panel.1.1.1">
            <polyline id="Fig:densplot_01.ticks.bottom.panel.1.1.1.1" points="57.63,42.19 57.63,36.52" stroke="rgb(0,0,0)" opacity="1" stroke-dasharray="none" stroke-width="0.75" stroke-opacity="1" fill="none"/>
            <polyline id="Fig:densplot_01.ticks.bottom.panel.1.1.1.2" points="92.94,42.19 92.94,36.52" stroke="rgb(0,0,0)" opacity="1" stroke-dasharray="none" stroke-width="0.75" stroke-opacity="1" fill="none"/>
            <polyline id="Fig:densplot_01.ticks.bottom.panel.1.1.1.3" points="128.26,42.19 128.26,36.52" stroke="rgb(0,0,0)" opacity="1" stroke-dasharray="none" stroke-width="0.75" stroke-opacity="1" fill="none"/>
            <polyline id="Fig:densplot_01.ticks.bottom.panel.1.1.1.4" points="163.57,42.19 163.57,36.52" stroke="rgb(0,0,0)" opacity="1" stroke-dasharray="none" stroke-width="0.75" stroke-opacity="1" fill="none"/>
            <polyline id="Fig:densplot_01.ticks.bottom.panel.1.1.1.5" points="198.88,42.19 198.88,36.52" stroke="rgb(0,0,0)" opacity="1" stroke-dasharray="none" stroke-width="0.75" stroke-opacity="1" fill="none"/>
            <polyline id="Fig:densplot_01.ticks.bottom.panel.1.1.1.6" points="234.2,42.19 234.2,36.52" stroke="rgb(0,0,0)" opacity="1" stroke-dasharray="none" stroke-width="0.75" stroke-opacity="1" fill="none"/>
            <polyline id="Fig:densplot_01.ticks.bottom.panel.1.1.1.7" points="269.51,42.19 269.51,36.52" stroke="rgb(0,0,0)" opacity="1" stroke-dasharray="none" stroke-width="0.75" stroke-opacity="1" fill="none"/>
          </g>
          <g id="Fig:densplot_01.ticklabels.bottom.panel.1.1.1">
            <g id="Fig:densplot_01.ticklabels.bottom.panel.1.1.1.1" transform="translate(57.63, 30.85)" stroke-width="0.1">
              <g id="Fig:densplot_01.ticklabels.bottom.panel.1.1.1.1.scale" transform="scale(1, -1)">
                <text x="0" y="0" id="Fig:densplot_01.ticklabels.bottom.panel.1.1.1.1.text" text-anchor="middle" stroke="rgb(0,0,0)" opacity="1" fill="rgb(0,0,0)" stroke-opacity="1" fill-opacity="1" font-size="9.6" font-weight="normal" font-style="normal">
                  <tspan id="Fig:densplot_01.ticklabels.bottom.panel.1.1.1.1.tspan.1" dy="7.18" x="0">0</tspan>
                </text>
              </g>
            </g>
            <g id="Fig:densplot_01.ticklabels.bottom.panel.1.1.1.2" transform="translate(92.94, 30.85)" stroke-width="0.1">
              <g id="Fig:densplot_01.ticklabels.bottom.panel.1.1.1.2.scale" transform="scale(1, -1)">
                <text x="0" y="0" id="Fig:densplot_01.ticklabels.bottom.panel.1.1.1.2.text" text-anchor="middle" stroke="rgb(0,0,0)" opacity="1" fill="rgb(0,0,0)" stroke-opacity="1" fill-opacity="1" font-size="9.6" font-weight="normal" font-style="normal">
                  <tspan id="Fig:densplot_01.ticklabels.bottom.panel.1.1.1.2.tspan.1" dy="7.18" x="0">500</tspan>
                </text>
              </g>
            </g>
            <g id="Fig:densplot_01.ticklabels.bottom.panel.1.1.1.3" transform="translate(128.26, 30.85)" stroke-width="0.1">
              <g id="Fig:densplot_01.ticklabels.bottom.panel.1.1.1.3.scale" transform="scale(1, -1)">
                <text x="0" y="0" id="Fig:densplot_01.ticklabels.bottom.panel.1.1.1.3.text" text-anchor="middle" stroke="rgb(0,0,0)" opacity="1" fill="rgb(0,0,0)" stroke-opacity="1" fill-opacity="1" font-size="9.6" font-weight="normal" font-style="normal">
                  <tspan id="Fig:densplot_01.ticklabels.bottom.panel.1.1.1.3.tspan.1" dy="7.18" x="0">1000</tspan>
                </text>
              </g>
            </g>
            <g id="Fig:densplot_01.ticklabels.bottom.panel.1.1.1.4" transform="translate(163.57, 30.85)" stroke-width="0.1">
              <g id="Fig:densplot_01.ticklabels.bottom.panel.1.1.1.4.scale" transform="scale(1, -1)">
                <text x="0" y="0" id="Fig:densplot_01.ticklabels.bottom.panel.1.1.1.4.text" text-anchor="middle" stroke="rgb(0,0,0)" opacity="1" fill="rgb(0,0,0)" stroke-opacity="1" fill-opacity="1" font-size="9.6" font-weight="normal" font-style="normal">
                  <tspan id="Fig:densplot_01.ticklabels.bottom.panel.1.1.1.4.tspan.1" dy="7.18" x="0">1500</tspan>
                </text>
              </g>
            </g>
            <g id="Fig:densplot_01.ticklabels.bottom.panel.1.1.1.5" transform="translate(198.88, 30.85)" stroke-width="0.1">
              <g id="Fig:densplot_01.ticklabels.bottom.panel.1.1.1.5.scale" transform="scale(1, -1)">
                <text x="0" y="0" id="Fig:densplot_01.ticklabels.bottom.panel.1.1.1.5.text" text-anchor="middle" stroke="rgb(0,0,0)" opacity="1" fill="rgb(0,0,0)" stroke-opacity="1" fill-opacity="1" font-size="9.6" font-weight="normal" font-style="normal">
                  <tspan id="Fig:densplot_01.ticklabels.bottom.panel.1.1.1.5.tspan.1" dy="7.18" x="0">2000</tspan>
                </text>
              </g>
            </g>
            <g id="Fig:densplot_01.ticklabels.bottom.panel.1.1.1.6" transform="translate(234.2, 30.85)" stroke-width="0.1">
              <g id="Fig:densplot_01.ticklabels.bottom.panel.1.1.1.6.scale" transform="scale(1, -1)">
                <text x="0" y="0" id="Fig:densplot_01.ticklabels.bottom.panel.1.1.1.6.text" text-anchor="middle" stroke="rgb(0,0,0)" opacity="1" fill="rgb(0,0,0)" stroke-opacity="1" fill-opacity="1" font-size="9.6" font-weight="normal" font-style="normal">
                  <tspan id="Fig:densplot_01.ticklabels.bottom.panel.1.1.1.6.tspan.1" dy="7.18" x="0">2500</tspan>
                </text>
              </g>
            </g>
            <g id="Fig:densplot_01.ticklabels.bottom.panel.1.1.1.7" transform="translate(269.51, 30.85)" stroke-width="0.1">
              <g id="Fig:densplot_01.ticklabels.bottom.panel.1.1.1.7.scale" transform="scale(1, -1)">
                <text x="0" y="0" id="Fig:densplot_01.ticklabels.bottom.panel.1.1.1.7.text" text-anchor="middle" stroke="rgb(0,0,0)" opacity="1" fill="rgb(0,0,0)" stroke-opacity="1" fill-opacity="1" font-size="9.6" font-weight="normal" font-style="normal">
                  <tspan id="Fig:densplot_01.ticklabels.bottom.panel.1.1.1.7.tspan.1" dy="7.18" x="0">3000</tspan>
                </text>
              </g>
            </g>
          </g>
        </g>
        <defs>
          <clipPath id="Fig:densplot_01.panel.1.1.vp.2.clipPath">
            <rect x="44.8" y="42.19" width="231.2" height="191.81" fill="none" stroke="none"/>
          </clipPath>
        </defs>
        <g id="Fig:densplot_01.panel.1.1.vp.2" clip-path="url(#Fig:densplot_01.panel.1.1.vp.2.clipPath)">
          <g id="Fig:densplot_01.xyplot.lines.group.1.panel.1.1.1">
            <polyline id="Fig:densplot_01.xyplot.lines.group.1.panel.1.1.1.1" points="59.44,53.97 59.83,53.98 60.23,54.08 60.62,54.71 61.01,57.48 61.41,65.89 61.8,84.09 62.2,112.29 62.59,143.38 62.99,166.78 63.38,176.84 63.78,175.33 64.17,166.89 64.57,155.7 64.96,144.56 65.36,134.6 65.75,125.91 66.14,118.42 66.54,111.91 66.93,106.02 67.33,100.8 67.72,96.52 68.12,92.92 68.51,89.64 68.91,86.67 69.3,84.03 69.7,81.68 70.09,79.61 70.48,77.81 70.88,76.21 71.27,74.71 71.67,73.25 72.06,71.91 72.46,70.78 72.85,69.83 73.25,69.02 73.64,68.3 74.04,67.6 74.43,66.87 74.82,66.16 75.22,65.56 75.61,65.08 76.01,64.64 76.4,64.22 76.8,63.82 77.19,63.42 77.59,63.01 77.98,62.64 78.38,62.34 78.77,62.04 79.17,61.72 79.56,61.43 79.95,61.15 80.35,60.84 80.74,60.5 81.14,60.19 81.53,59.97 81.93,59.83 82.32,59.7 82.72,59.5 83.11,59.27 83.51,59.05 83.9,58.87 84.29,58.74 84.69,58.62 85.08,58.48 85.48,58.34 85.87,58.23 86.27,58.15 86.66,58.07 87.06,57.97 87.45,57.85 87.85,57.74 88.24,57.67 88.63,57.62 89.03,57.52 89.42,57.41 89.82,57.32 90.21,57.22 90.61,57.15 91,57.08 91.4,56.99 91.79,56.91 92.19,56.85 92.58,56.79 92.98,56.71 93.37,56.63 93.76,56.56 94.16,56.51 94.55,56.48 94.95,56.42 95.34,56.31 95.74,56.21 96.13,56.15 96.53,56.13 96.92,56.11 97.32,56.07 97.71,56.03 98.1,56.02 98.5,56 98.89,55.97 99.29,55.93 99.68,55.87 100.08,55.79 100.47,55.72 100.87,55.69 101.26,55.69 101.66,55.67 102.05,55.65 102.45,55.63 102.84,55.61 103.23,55.6 103.63,55.58 104.02,55.54 104.42,55.49 104.81,55.46 105.21,55.43 105.6,55.4 106,55.38 106.39,55.37 106.79,55.36 107.18,55.33 107.57,55.3 107.97,55.29 108.36,55.28 108.76,55.26 109.15,55.27 109.55,55.27 109.94,55.24 110.34,55.2 110.73,55.17 111.13,55.15 111.52,55.15 111.91,55.14 112.31,55.11 112.7,55.08 113.1,55.06 113.49,55.03 113.89,54.99 114.28,54.94 114.68,54.92 115.07,54.92 115.47,54.94 115.86,54.94 116.26,54.92 116.65,54.9 117.04,54.92 117.44,54.94 117.83,54.91 118.23,54.85 118.62,54.82 119.02,54.8 119.41,54.8 119.81,54.8 120.2,54.8 120.6,54.81 120.99,54.8 121.38,54.79 121.78,54.79 122.17,54.79 122.57,54.78 122.96,54.76 123.36,54.73 123.75,54.71 124.15,54.7 124.54,54.68 124.94,54.67 125.33,54.67 125.72,54.67 126.12,54.64 126.51,54.61 126.91,54.6 127.3,54.61 127.7,54.61 128.09,54.61 128.49,54.61 128.88,54.61 129.28,54.6 129.67,54.58 130.07,54.56 130.46,54.55 130.85,54.55 131.25,54.55 131.64,54.55 132.04,54.56 132.43,54.57 132.83,54.57 133.22,54.53 133.62,54.5 134.01,54.49 134.41,54.51 134.8,54.51 135.19,54.48 135.59,54.46 135.98,54.46 136.38,54.47 136.77,54.49 137.17,54.5 137.56,54.49 137.96,54.47 138.35,54.44 138.75,54.44 139.14,54.45 139.54,54.45 139.93,54.44 140.32,54.45 140.72,54.45 141.11,54.44 141.51,54.43 141.9,54.41 142.3,54.39 142.69,54.37 143.09,54.36 143.48,54.37 143.88,54.39 144.27,54.4 144.66,54.39 145.06,54.38 145.45,54.38 145.85,54.38 146.24,54.39 146.64,54.4 147.03,54.39 147.43,54.36 147.82,54.34 148.22,54.34 148.61,54.36 149,54.36 149.4,54.35 149.79,54.34 150.19,54.34 150.58,54.34 150.98,54.34 151.37,54.34 151.77,54.34 152.16,54.33 152.56,54.32 152.95,54.32 153.35,54.32 153.74,54.33 154.13,54.31 154.53,54.28 154.92,54.26 155.32,54.26 155.71,54.28 156.11,54.29 156.5,54.3 156.9,54.3 157.29,54.3 157.69,54.29 158.08,54.28 158.47,54.27 158.87,54.25 159.26,54.23 159.66,54.23 160.05,54.25 160.45,54.27 160.84,54.28 161.24,54.28 161.63,54.26 162.03,54.25 162.42,54.24 162.82,54.25 163.21,54.25 163.6,54.26 164,54.27 164.39,54.27 164.79,54.27 165.18,54.26 165.58,54.25 165.97,54.24 166.37,54.24 166.76,54.25 167.16,54.25 167.55,54.24 167.94,54.24 168.34,54.24 168.73,54.23 169.13,54.22 169.52,54.21 169.92,54.2 170.31,54.21 170.71,54.23 171.1,54.23 171.5,54.23 171.89,54.23 172.28,54.22 172.68,54.21 173.07,54.21 173.47,54.2 173.86,54.19 174.26,54.19 174.65,54.19 175.05,54.19 175.44,54.19 175.84,54.18 176.23,54.18 176.63,54.18 177.02,54.18 177.41,54.18 177.81,54.17 178.2,54.16 178.6,54.16 178.99,54.17 179.39,54.18 179.78,54.18 180.18,54.17 180.57,54.16 180.97,54.15 181.36,54.14 181.75,54.16 182.15,54.17 182.54,54.17 182.94,54.16 183.33,54.15 183.73,54.15 184.12,54.16 184.52,54.16 184.91,54.15 185.31,54.16 185.7,54.17 186.09,54.17 186.49,54.16 186.88,54.15 187.28,54.14 187.67,54.13 188.07,54.14 188.46,54.16 188.86,54.16 189.25,54.15 189.65,54.13 190.04,54.13 190.44,54.13 190.83,54.14 191.22,54.14 191.62,54.14 192.01,54.13 192.41,54.13 192.8,54.12 193.2,54.12 193.59,54.11 193.99,54.1 194.38,54.1 194.78,54.09 195.17,54.1 195.56,54.11 195.96,54.11 196.35,54.11 196.75,54.11 197.14,54.11 197.54,54.11 197.93,54.11 198.33,54.11 198.72,54.12 199.12,54.14 199.51,54.14 199.91,54.13 200.3,54.11 200.69,54.1 201.09,54.11 201.48,54.12 201.88,54.12 202.27,54.11 202.67,54.11 203.06,54.1 203.46,54.1 203.85,54.11 204.25,54.11 204.64,54.11 205.03,54.1 205.43,54.1 205.82,54.08 206.22,54.07 206.61,54.07 207.01,54.08 207.4,54.09 207.8,54.1 208.19,54.1 208.59,54.09 208.98,54.08 209.37,54.08 209.77,54.08 210.16,54.09 210.56,54.09 210.95,54.09 211.35,54.09 211.74,54.1 212.14,54.11 212.53,54.11 212.93,54.11 213.32,54.1 213.72,54.09 214.11,54.08 214.5,54.07 214.9,54.08 215.29,54.09 215.69,54.1 216.08,54.1 216.48,54.1 216.87,54.1 217.27,54.09 217.66,54.08 218.06,54.08 218.45,54.08 218.84,54.08 219.24,54.08 219.63,54.07 220.03,54.06 220.42,54.06 220.82,54.07 221.21,54.07 221.61,54.07 222,54.08 222.4,54.09 222.79,54.09 223.18,54.1 223.58,54.1 223.97,54.09 224.37,54.08 224.76,54.07 225.16,54.06 225.55,54.07 225.95,54.08 226.34,54.08 226.74,54.08 227.13,54.07 227.53,54.07 227.92,54.07 228.31,54.07 228.71,54.06 229.1,54.05 229.5,54.05 229.89,54.05 230.29,54.06 230.68,54.07 231.08,54.06 231.47,54.06 231.87,54.06 232.26,54.06 232.65,54.05 233.05,54.05 233.44,54.05 233.84,54.05 234.23,54.05 234.63,54.05 235.02,54.06 235.42,54.06 235.81,54.07 236.21,54.07 236.6,54.07 237,54.06 237.39,54.06 237.78,54.07 238.18,54.07 238.57,54.07 238.97,54.07 239.36,54.06 239.76,54.06 240.15,54.06 240.55,54.05 240.94,54.05 241.34,54.05 241.73,54.05 242.12,54.05 242.52,54.05 242.91,54.05 243.31,54.05 243.7,54.04 244.1,54.04 244.49,54.04 244.89,54.05 245.28,54.05 245.68,54.05 246.07,54.04 246.46,54.04 246.86,54.03 247.25,54.04 247.65,54.04 248.04,54.05 248.44,54.05 248.83,54.05 249.23,54.05 249.62,54.05 250.02,54.05 250.41,54.05 250.81,54.05 251.2,54.04 251.59,54.03 251.99,54.04 252.38,54.05 252.78,54.05 253.17,54.04 253.57,54.04 253.96,54.04 254.36,54.04 254.75,54.04 255.15,54.05 255.54,54.04 255.93,54.05 256.33,54.05 256.72,54.04 257.12,54.04 257.51,54.04 257.91,54.04 258.3,54.05 258.7,54.04 259.09,54.04 259.49,54.02 259.88,54 260.27,53.98 260.67,53.97 261.06,53.97" stroke-dasharray="none" stroke="rgb(31,120,180)" stroke-width="0.75" opacity="1" stroke-opacity="1" fill="none"/>
          </g>
          <g id="Fig:densplot_01.xyplot.lines.group.2.panel.1.1.1">
            <polyline id="Fig:densplot_01.xyplot.lines.group.2.panel.1.1.1.1" points="59.26,53.97 59.65,53.97 60.05,53.99 60.44,54.17 60.84,55.14 61.24,58.95 61.63,69.51 62.03,90.51 62.42,120.67 62.82,151.83 63.21,173.87 63.61,181.76 64,177.6 64.4,166.71 64.79,153.72 65.19,141.37 65.58,130.75 65.98,121.74 66.37,113.87 66.77,107.02 67.16,101.26 67.56,96.46 67.95,92.37 68.35,88.88 68.74,85.94 69.14,83.36 69.53,81.02 69.93,78.94 70.32,77.12 70.72,75.49 71.11,74.02 71.51,72.71 71.9,71.58 72.3,70.59 72.69,69.69 73.09,68.82 73.48,67.97 73.88,67.16 74.27,66.39 74.67,65.71 75.06,65.2 75.46,64.8 75.86,64.41 76.25,64.02 76.65,63.58 77.04,63.12 77.44,62.69 77.83,62.3 78.23,61.99 78.62,61.8 79.02,61.63 79.41,61.39 79.81,61.1 80.2,60.8 80.6,60.55 80.99,60.36 81.39,60.18 81.78,59.98 82.18,59.74 82.57,59.51 82.97,59.32 83.36,59.18 83.76,59.06 84.15,58.96 84.55,58.88 84.94,58.79 85.34,58.65 85.73,58.51 86.13,58.39 86.52,58.3 86.92,58.19 87.31,58.05 87.71,57.9 88.1,57.79 88.5,57.73 88.89,57.68 89.29,57.61 89.68,57.54 90.08,57.47 90.47,57.37 90.87,57.25 91.27,57.16 91.66,57.11 92.06,57.07 92.45,57.02 92.85,56.94 93.24,56.85 93.64,56.78 94.03,56.73 94.43,56.68 94.82,56.63 95.22,56.59 95.61,56.57 96.01,56.55 96.4,56.49 96.8,56.41 97.19,56.33 97.59,56.28 97.98,56.24 98.38,56.21 98.77,56.16 99.17,56.11 99.56,56.09 99.96,56.08 100.35,56.04 100.75,55.96 101.14,55.9 101.54,55.86 101.93,55.82 102.33,55.8 102.72,55.78 103.12,55.78 103.51,55.77 103.91,55.75 104.3,55.73 104.7,55.69 105.09,55.66 105.49,55.62 105.88,55.6 106.28,55.57 106.68,55.52 107.07,55.49 107.47,55.47 107.86,55.48 108.26,55.49 108.65,55.48 109.05,55.45 109.44,55.4 109.84,55.33 110.23,55.29 110.63,55.28 111.02,55.3 111.42,55.28 111.81,55.23 112.21,55.19 112.6,55.17 113,55.17 113.39,55.17 113.79,55.16 114.18,55.15 114.58,55.14 114.97,55.14 115.37,55.14 115.76,55.14 116.16,55.11 116.55,55.08 116.95,55.06 117.34,55.07 117.74,55.07 118.13,55.08 118.53,55.08 118.92,55.06 119.32,55.04 119.71,55.01 120.11,54.98 120.5,54.95 120.9,54.93 121.29,54.9 121.69,54.88 122.09,54.89 122.48,54.89 122.88,54.89 123.27,54.9 123.67,54.89 124.06,54.88 124.46,54.87 124.85,54.86 125.25,54.84 125.64,54.83 126.04,54.83 126.43,54.83 126.83,54.81 127.22,54.77 127.62,54.74 128.01,54.74 128.41,54.74 128.8,54.74 129.2,54.73 129.59,54.72 129.99,54.7 130.38,54.69 130.78,54.69 131.17,54.71 131.57,54.71 131.96,54.69 132.36,54.66 132.75,54.64 133.15,54.63 133.54,54.63 133.94,54.64 134.33,54.63 134.73,54.6 135.12,54.59 135.52,54.61 135.91,54.63 136.31,54.64 136.7,54.62 137.1,54.59 137.5,54.56 137.89,54.53 138.29,54.51 138.68,54.51 139.08,54.51 139.47,54.52 139.87,54.52 140.26,54.53 140.66,54.53 141.05,54.51 141.45,54.49 141.84,54.48 142.24,54.49 142.63,54.5 143.03,54.5 143.42,54.49 143.82,54.48 144.21,54.48 144.61,54.49 145,54.49 145.4,54.48 145.79,54.48 146.19,54.49 146.58,54.49 146.98,54.47 147.37,54.46 147.77,54.44 148.16,54.43 148.56,54.42 148.95,54.43 149.35,54.44 149.74,54.44 150.14,54.44 150.53,54.43 150.93,54.44 151.32,54.45 151.72,54.44 152.11,54.43 152.51,54.42 152.91,54.41 153.3,54.4 153.7,54.38 154.09,54.37 154.49,54.37 154.88,54.37 155.28,54.36 155.67,54.35 156.07,54.34 156.46,54.33 156.86,54.33 157.25,54.34 157.65,54.34 158.04,54.34 158.44,54.33 158.83,54.33 159.23,54.33 159.62,54.33 160.02,54.35 160.41,54.36 160.81,54.37 161.2,54.37 161.6,54.38 161.99,54.38 162.39,54.37 162.78,54.35 163.18,54.33 163.57,54.3 163.97,54.27 164.36,54.27 164.76,54.29 165.15,54.3 165.55,54.31 165.94,54.31 166.34,54.3 166.73,54.29 167.13,54.28 167.52,54.28 167.92,54.28 168.32,54.28 168.71,54.28 169.11,54.29 169.5,54.29 169.9,54.28 170.29,54.28 170.69,54.27 171.08,54.26 171.48,54.25 171.87,54.23 172.27,54.23 172.66,54.24 173.06,54.25 173.45,54.26 173.85,54.28 174.24,54.28 174.64,54.27 175.03,54.25 175.43,54.22 175.82,54.22 176.22,54.23 176.61,54.24 177.01,54.26 177.4,54.25 177.8,54.24 178.19,54.22 178.59,54.22 178.98,54.22 179.38,54.22 179.77,54.21 180.17,54.21 180.56,54.22 180.96,54.23 181.35,54.23 181.75,54.22 182.14,54.21 182.54,54.19 182.93,54.18 183.33,54.18 183.73,54.19 184.12,54.21 184.52,54.22 184.91,54.23 185.31,54.22 185.7,54.22 186.1,54.22 186.49,54.21 186.89,54.2 187.28,54.19 187.68,54.18 188.07,54.18 188.47,54.18 188.86,54.19 189.26,54.19 189.65,54.19 190.05,54.18 190.44,54.17 190.84,54.16 191.23,54.16 191.63,54.16 192.02,54.16 192.42,54.17 192.81,54.18 193.21,54.18 193.6,54.18 194,54.18 194.39,54.17 194.79,54.17 195.18,54.17 195.58,54.17 195.97,54.16 196.37,54.16 196.76,54.15 197.16,54.15 197.55,54.15 197.95,54.15 198.34,54.14 198.74,54.14 199.14,54.14 199.53,54.15 199.93,54.16 200.32,54.16 200.72,54.15 201.11,54.14 201.51,54.13 201.9,54.13 202.3,54.14 202.69,54.14 203.09,54.15 203.48,54.15 203.88,54.15 204.27,54.14 204.67,54.13 205.06,54.13 205.46,54.14 205.85,54.13 206.25,54.12 206.64,54.12 207.04,54.12 207.43,54.13 207.83,54.14 208.22,54.13 208.62,54.13 209.01,54.12 209.41,54.12 209.8,54.13 210.2,54.13 210.59,54.14 210.99,54.15 211.38,54.16 211.78,54.15 212.17,54.14 212.57,54.13 212.96,54.13 213.36,54.13 213.75,54.13 214.15,54.12 214.55,54.11 214.94,54.1 215.34,54.11 215.73,54.12 216.13,54.13 216.52,54.13 216.92,54.12 217.31,54.12 217.71,54.11 218.1,54.11 218.5,54.11 218.89,54.11 219.29,54.11 219.68,54.11 220.08,54.11 220.47,54.11 220.87,54.11 221.26,54.11 221.66,54.11 222.05,54.1 222.45,54.09 222.84,54.09 223.24,54.1 223.63,54.1 224.03,54.1 224.42,54.1 224.82,54.09 225.21,54.09 225.61,54.09 226,54.1 226.4,54.1 226.79,54.09 227.19,54.08 227.58,54.08 227.98,54.09 228.37,54.09 228.77,54.1 229.16,54.09 229.56,54.09 229.96,54.09 230.35,54.09 230.75,54.09 231.14,54.09 231.54,54.09 231.93,54.08 232.33,54.08 232.72,54.08 233.12,54.08 233.51,54.08 233.91,54.08 234.3,54.08 234.7,54.09 235.09,54.09 235.49,54.09 235.88,54.09 236.28,54.09 236.67,54.08 237.07,54.07 237.46,54.06 237.86,54.06 238.25,54.07 238.65,54.08 239.04,54.08 239.44,54.08 239.83,54.08 240.23,54.08 240.62,54.08 241.02,54.08 241.41,54.08 241.81,54.07 242.2,54.06 242.6,54.06 242.99,54.06 243.39,54.06 243.78,54.06 244.18,54.06 244.57,54.06 244.97,54.06 245.37,54.06 245.76,54.06 246.16,54.07 246.55,54.06 246.95,54.07 247.34,54.07 247.74,54.08 248.13,54.08 248.53,54.08 248.92,54.08 249.32,54.07 249.71,54.07 250.11,54.07 250.5,54.08 250.9,54.07 251.29,54.07 251.69,54.07 252.08,54.07 252.48,54.06 252.87,54.06 253.27,54.06 253.66,54.05 254.06,54.05 254.45,54.05 254.85,54.05 255.24,54.05 255.64,54.06 256.03,54.05 256.43,54.05 256.82,54.06 257.22,54.07 257.61,54.07 258.01,54.06 258.4,54.06 258.8,54.05 259.19,54.05 259.59,54.03 259.98,54 260.38,53.98 260.78,53.97 261.17,53.97" stroke-dasharray="none" stroke="rgb(31,120,180)" stroke-width="0.75" opacity="1" stroke-opacity="1" fill="none"/>
          </g>
          <g id="Fig:densplot_01.xyplot.lines.group.3.panel.1.1.1">
            <polyline id="Fig:densplot_01.xyplot.lines.group.3.panel.1.1.1.1" points="59.31,53.97 59.71,53.97 60.11,53.98 60.5,54.08 60.9,54.56 61.29,56.26 61.69,60.95 62.08,70.9 62.48,87.43 62.88,108.99 63.27,130.94 63.67,147.88 64.06,156.59 64.46,157.21 64.85,152.13 65.25,144.22 65.65,135.57 66.04,127.3 66.44,119.82 66.83,113.27 67.23,107.63 67.62,102.77 68.02,98.49 68.42,94.68 68.81,91.33 69.21,88.44 69.6,85.96 70,83.78 70.39,81.81 70.79,80 71.19,78.33 71.58,76.79 71.98,75.36 72.37,74.01 72.77,72.73 73.16,71.57 73.56,70.55 73.96,69.67 74.35,68.93 74.75,68.3 75.14,67.73 75.54,67.15 75.94,66.56 76.33,66 76.73,65.48 77.12,65.01 77.52,64.59 77.91,64.24 78.31,63.92 78.71,63.6 79.1,63.26 79.5,62.93 79.89,62.63 80.29,62.35 80.68,62.07 81.08,61.79 81.48,61.52 81.87,61.26 82.27,61.01 82.66,60.78 83.06,60.59 83.45,60.42 83.85,60.27 84.25,60.11 84.64,59.94 85.04,59.75 85.43,59.59 85.83,59.47 86.22,59.35 86.62,59.21 87.02,59.05 87.41,58.9 87.81,58.75 88.2,58.61 88.6,58.48 88.99,58.36 89.39,58.28 89.79,58.21 90.18,58.13 90.58,58.02 90.97,57.91 91.37,57.83 91.76,57.76 92.16,57.66 92.56,57.56 92.95,57.47 93.35,57.4 93.74,57.33 94.14,57.26 94.54,57.18 94.93,57.13 95.33,57.1 95.72,57.08 96.12,57.05 96.51,56.99 96.91,56.94 97.31,56.87 97.7,56.81 98.1,56.73 98.49,56.64 98.89,56.56 99.28,56.51 99.68,56.47 100.08,56.45 100.47,56.44 100.87,56.42 101.26,56.39 101.66,56.35 102.05,56.3 102.45,56.27 102.85,56.24 103.24,56.19 103.64,56.12 104.03,56.05 104.43,56 104.82,55.98 105.22,55.96 105.62,55.95 106.01,55.95 106.41,55.95 106.8,55.94 107.2,55.91 107.59,55.88 107.99,55.85 108.39,55.81 108.78,55.77 109.18,55.74 109.57,55.71 109.97,55.67 110.36,55.63 110.76,55.59 111.16,55.55 111.55,55.53 111.95,55.51 112.34,55.5 112.74,55.48 113.14,55.46 113.53,55.42 113.93,55.39 114.32,55.36 114.72,55.33 115.11,55.32 115.51,55.32 115.91,55.33 116.3,55.33 116.7,55.32 117.09,55.29 117.49,55.26 117.88,55.23 118.28,55.2 118.68,55.18 119.07,55.17 119.47,55.15 119.86,55.15 120.26,55.15 120.65,55.15 121.05,55.16 121.45,55.15 121.84,55.12 122.24,55.09 122.63,55.05 123.03,55.02 123.42,55 123.82,55 124.22,55.01 124.61,55.02 125.01,55.02 125.4,55.02 125.8,55.02 126.19,55.01 126.59,54.99 126.99,54.97 127.38,54.95 127.78,54.94 128.17,54.93 128.57,54.92 128.97,54.91 129.36,54.9 129.76,54.89 130.15,54.88 130.55,54.86 130.94,54.84 131.34,54.81 131.74,54.79 132.13,54.78 132.53,54.79 132.92,54.79 133.32,54.8 133.71,54.8 134.11,54.78 134.51,54.76 134.9,54.73 135.3,54.71 135.69,54.7 136.09,54.68 136.48,54.67 136.88,54.66 137.28,54.65 137.67,54.64 138.07,54.64 138.46,54.66 138.86,54.67 139.25,54.69 139.65,54.69 140.05,54.68 140.44,54.67 140.84,54.64 141.23,54.62 141.63,54.61 142.02,54.61 142.42,54.63 142.82,54.64 143.21,54.65 143.61,54.65 144,54.64 144.4,54.62 144.79,54.6 145.19,54.59 145.59,54.58 145.98,54.58 146.38,54.58 146.77,54.56 147.17,54.54 147.57,54.53 147.96,54.53 148.36,54.53 148.75,54.53 149.15,54.53 149.54,54.53 149.94,54.53 150.34,54.54 150.73,54.54 151.13,54.54 151.52,54.53 151.92,54.52 152.31,54.51 152.71,54.5 153.11,54.48 153.5,54.47 153.9,54.46 154.29,54.44 154.69,54.43 155.08,54.42 155.48,54.42 155.88,54.42 156.27,54.42 156.67,54.42 157.06,54.42 157.46,54.41 157.85,54.39 158.25,54.38 158.65,54.39 159.04,54.41 159.44,54.42 159.83,54.41 160.23,54.41 160.62,54.41 161.02,54.42 161.42,54.42 161.81,54.41 162.21,54.41 162.6,54.42 163,54.42 163.39,54.42 163.79,54.41 164.19,54.4 164.58,54.39 164.98,54.38 165.37,54.37 165.77,54.37 166.17,54.36 166.56,54.36 166.96,54.36 167.35,54.35 167.75,54.34 168.14,54.33 168.54,54.33 168.94,54.33 169.33,54.32 169.73,54.32 170.12,54.33 170.52,54.34 170.91,54.36 171.31,54.37 171.71,54.37 172.1,54.36 172.5,54.34 172.89,54.32 173.29,54.31 173.68,54.31 174.08,54.32 174.48,54.32 174.87,54.32 175.27,54.32 175.66,54.31 176.06,54.3 176.45,54.3 176.85,54.3 177.25,54.3 177.64,54.29 178.04,54.28 178.43,54.28 178.83,54.27 179.22,54.26 179.62,54.26 180.02,54.26 180.41,54.26 180.81,54.26 181.2,54.25 181.6,54.24 182,54.24 182.39,54.24 182.79,54.24 183.18,54.25 183.58,54.26 183.97,54.25 184.37,54.25 184.77,54.25 185.16,54.25 185.56,54.24 185.95,54.23 186.35,54.23 186.74,54.23 187.14,54.24 187.54,54.24 187.93,54.23 188.33,54.23 188.72,54.22 189.12,54.22 189.51,54.22 189.91,54.23 190.31,54.23 190.7,54.22 191.1,54.21 191.49,54.21 191.89,54.21 192.28,54.21 192.68,54.22 193.08,54.22 193.47,54.21 193.87,54.21 194.26,54.21 194.66,54.21 195.05,54.22 195.45,54.23 195.85,54.24 196.24,54.23 196.64,54.22 197.03,54.21 197.43,54.21 197.82,54.2 198.22,54.2 198.62,54.2 199.01,54.2 199.41,54.2 199.8,54.19 200.2,54.19 200.6,54.19 200.99,54.19 201.39,54.18 201.78,54.18 202.18,54.18 202.57,54.17 202.97,54.18 203.37,54.18 203.76,54.18 204.16,54.19 204.55,54.19 204.95,54.19 205.34,54.18 205.74,54.18 206.14,54.18 206.53,54.18 206.93,54.17 207.32,54.17 207.72,54.16 208.11,54.16 208.51,54.15 208.91,54.15 209.3,54.15 209.7,54.15 210.09,54.16 210.49,54.15 210.88,54.14 211.28,54.14 211.68,54.14 212.07,54.15 212.47,54.16 212.86,54.17 213.26,54.17 213.65,54.17 214.05,54.16 214.45,54.15 214.84,54.14 215.24,54.14 215.63,54.14 216.03,54.14 216.42,54.14 216.82,54.14 217.22,54.13 217.61,54.13 218.01,54.13 218.4,54.13 218.8,54.13 219.2,54.13 219.59,54.14 219.99,54.14 220.38,54.14 220.78,54.14 221.17,54.14 221.57,54.14 221.97,54.13 222.36,54.13 222.76,54.13 223.15,54.13 223.55,54.14 223.94,54.13 224.34,54.13 224.74,54.13 225.13,54.13 225.53,54.14 225.92,54.14 226.32,54.13 226.71,54.13 227.11,54.13 227.51,54.13 227.9,54.12 228.3,54.11 228.69,54.11 229.09,54.1 229.48,54.11 229.88,54.11 230.28,54.12 230.67,54.11 231.07,54.11 231.46,54.1 231.86,54.1 232.25,54.1 232.65,54.1 233.05,54.1 233.44,54.11 233.84,54.12 234.23,54.11 234.63,54.11 235.03,54.1 235.42,54.1 235.82,54.1 236.21,54.1 236.61,54.1 237,54.1 237.4,54.1 237.8,54.1 238.19,54.12 238.59,54.12 238.98,54.13 239.38,54.12 239.77,54.12 240.17,54.11 240.57,54.11 240.96,54.11 241.36,54.11 241.75,54.1 242.15,54.1 242.54,54.09 242.94,54.09 243.34,54.09 243.73,54.1 244.13,54.1 244.52,54.1 244.92,54.1 245.31,54.09 245.71,54.09 246.11,54.08 246.5,54.07 246.9,54.08 247.29,54.09 247.69,54.1 248.08,54.11 248.48,54.11 248.88,54.1 249.27,54.1 249.67,54.09 250.06,54.09 250.46,54.09 250.85,54.09 251.25,54.08 251.65,54.08 252.04,54.09 252.44,54.09 252.83,54.1 253.23,54.11 253.63,54.11 254.02,54.1 254.42,54.1 254.81,54.1 255.21,54.09 255.6,54.09 256,54.09 256.4,54.09 256.79,54.08 257.19,54.08 257.58,54.08 257.98,54.08 258.37,54.08 258.77,54.07 259.17,54.06 259.56,54.03 259.96,54.01 260.35,53.99 260.75,53.97 261.14,53.97 261.54,53.97" stroke-dasharray="none" stroke="rgb(31,120,180)" stroke-width="0.75" opacity="1" stroke-opacity="1" fill="none"/>
          </g>
          <g id="Fig:densplot_01.xyplot.lines.group.4.panel.1.1.1">
            <polyline id="Fig:densplot_01.xyplot.lines.group.4.panel.1.1.1.1" points="59.21,53.97 59.61,53.98 60,54.05 60.4,54.43 60.79,56 61.19,60.82 61.58,72.08 61.98,91.94 62.38,118.3 62.77,144.17 63.17,161.84 63.56,168.08 63.96,164.89 64.35,156.41 64.75,146.19 65.14,136.36 65.54,127.6 65.94,119.86 66.33,113.02 66.73,107.08 67.12,101.94 67.52,97.49 67.91,93.68 68.31,90.47 68.71,87.63 69.1,84.96 69.5,82.48 69.89,80.3 70.29,78.45 70.68,76.85 71.08,75.4 71.47,74.08 71.87,72.86 72.27,71.74 72.66,70.7 73.06,69.73 73.45,68.88 73.85,68.17 74.24,67.55 74.64,66.95 75.03,66.35 75.43,65.77 75.83,65.26 76.22,64.83 76.62,64.43 77.01,64.04 77.41,63.65 77.8,63.25 78.2,62.87 78.6,62.53 78.99,62.22 79.39,61.87 79.78,61.54 80.18,61.28 80.57,61.09 80.97,60.9 81.36,60.68 81.76,60.46 82.16,60.27 82.55,60.1 82.95,59.94 83.34,59.75 83.74,59.53 84.13,59.31 84.53,59.13 84.92,59.01 85.32,58.93 85.72,58.87 86.11,58.8 86.51,58.68 86.9,58.55 87.3,58.43 87.69,58.32 88.09,58.2 88.49,58.07 88.88,57.94 89.28,57.82 89.67,57.73 90.07,57.66 90.46,57.6 90.86,57.54 91.25,57.47 91.65,57.37 92.05,57.25 92.44,57.14 92.84,57.06 93.23,57.02 93.63,56.99 94.02,56.97 94.42,56.94 94.81,56.9 95.21,56.85 95.61,56.81 96,56.76 96.4,56.7 96.79,56.63 97.19,56.56 97.58,56.49 97.98,56.44 98.37,56.38 98.77,56.32 99.17,56.27 99.56,56.23 99.96,56.22 100.35,56.21 100.75,56.19 101.14,56.17 101.54,56.13 101.94,56.08 102.33,56.02 102.73,55.97 103.12,55.94 103.52,55.93 103.91,55.92 104.31,55.89 104.7,55.84 105.1,55.78 105.5,55.73 105.89,55.69 106.29,55.66 106.68,55.63 107.08,55.62 107.47,55.62 107.87,55.62 108.26,55.6 108.66,55.59 109.06,55.57 109.45,55.54 109.85,55.51 110.24,55.47 110.64,55.44 111.03,55.43 111.43,55.41 111.83,55.4 112.22,55.38 112.62,55.36 113.01,55.34 113.41,55.33 113.8,55.3 114.2,55.25 114.59,55.21 114.99,55.19 115.39,55.18 115.78,55.17 116.18,55.16 116.57,55.15 116.97,55.14 117.36,55.13 117.76,55.13 118.15,55.14 118.55,55.13 118.95,55.12 119.34,55.11 119.74,55.08 120.13,55.06 120.53,55.03 120.92,55.01 121.32,55 121.72,55 122.11,55 122.51,54.99 122.9,54.98 123.3,54.98 123.69,54.97 124.09,54.95 124.48,54.93 124.88,54.91 125.28,54.89 125.67,54.87 126.07,54.86 126.46,54.85 126.86,54.85 127.25,54.85 127.65,54.83 128.04,54.81 128.44,54.81 128.84,54.83 129.23,54.83 129.63,54.81 130.02,54.78 130.42,54.76 130.81,54.75 131.21,54.75 131.6,54.74 132,54.73 132.4,54.72 132.79,54.73 133.19,54.74 133.58,54.74 133.98,54.73 134.37,54.72 134.77,54.71 135.17,54.7 135.56,54.69 135.96,54.67 136.35,54.64 136.75,54.62 137.14,54.6 137.54,54.59 137.93,54.6 138.33,54.6 138.73,54.6 139.12,54.58 139.52,54.58 139.91,54.57 140.31,54.57 140.7,54.56 141.1,54.57 141.49,54.57 141.89,54.57 142.29,54.58 142.68,54.58 143.08,54.58 143.47,54.56 143.87,54.55 144.26,54.53 144.66,54.53 145.06,54.53 145.45,54.54 145.85,54.55 146.24,54.54 146.64,54.53 147.03,54.52 147.43,54.52 147.82,54.51 148.22,54.5 148.62,54.49 149.01,54.49 149.41,54.49 149.8,54.49 150.2,54.5 150.59,54.5 150.99,54.49 151.38,54.48 151.78,54.48 152.18,54.47 152.57,54.46 152.97,54.45 153.36,54.45 153.76,54.44 154.15,54.44 154.55,54.43 154.95,54.42 155.34,54.42 155.74,54.42 156.13,54.42 156.53,54.41 156.92,54.41 157.32,54.4 157.71,54.4 158.11,54.41 158.51,54.41 158.9,54.4 159.3,54.39 159.69,54.39 160.09,54.38 160.48,54.38 160.88,54.37 161.27,54.36 161.67,54.37 162.07,54.38 162.46,54.38 162.86,54.37 163.25,54.36 163.65,54.36 164.04,54.36 164.44,54.36 164.83,54.35 165.23,54.33 165.63,54.33 166.02,54.33 166.42,54.34 166.81,54.34 167.21,54.33 167.6,54.32 168,54.31 168.4,54.31 168.79,54.31 169.19,54.3 169.58,54.29 169.98,54.29 170.37,54.3 170.77,54.31 171.16,54.31 171.56,54.3 171.96,54.3 172.35,54.3 172.75,54.3 173.14,54.31 173.54,54.31 173.93,54.3 174.33,54.28 174.72,54.27 175.12,54.26 175.52,54.26 175.91,54.25 176.31,54.25 176.7,54.25 177.1,54.26 177.49,54.27 177.89,54.27 178.29,54.28 178.68,54.28 179.08,54.26 179.47,54.24 179.87,54.22 180.26,54.22 180.66,54.22 181.05,54.23 181.45,54.24 181.85,54.24 182.24,54.25 182.64,54.25 183.03,54.25 183.43,54.25 183.82,54.24 184.22,54.22 184.61,54.21 185.01,54.2 185.41,54.2 185.8,54.2 186.2,54.21 186.59,54.21 186.99,54.21 187.38,54.21 187.78,54.21 188.18,54.2 188.57,54.2 188.97,54.19 189.36,54.19 189.76,54.18 190.15,54.18 190.55,54.19 190.94,54.2 191.34,54.2 191.74,54.2 192.13,54.19 192.53,54.18 192.92,54.18 193.32,54.19 193.71,54.21 194.11,54.22 194.5,54.22 194.9,54.21 195.3,54.2 195.69,54.2 196.09,54.2 196.48,54.2 196.88,54.19 197.27,54.18 197.67,54.17 198.06,54.17 198.46,54.17 198.86,54.17 199.25,54.16 199.65,54.16 200.04,54.15 200.44,54.16 200.83,54.16 201.23,54.16 201.63,54.16 202.02,54.16 202.42,54.16 202.81,54.16 203.21,54.17 203.6,54.17 204,54.17 204.39,54.16 204.79,54.16 205.19,54.15 205.58,54.15 205.98,54.14 206.37,54.14 206.77,54.14 207.16,54.15 207.56,54.15 207.95,54.14 208.35,54.13 208.75,54.13 209.14,54.13 209.54,54.14 209.93,54.16 210.33,54.16 210.72,54.16 211.12,54.16 211.52,54.17 211.91,54.17 212.31,54.16 212.7,54.14 213.1,54.13 213.49,54.12 213.89,54.12 214.28,54.12 214.68,54.13 215.08,54.14 215.47,54.15 215.87,54.15 216.26,54.15 216.66,54.15 217.05,54.15 217.45,54.15 217.84,54.15 218.24,54.14 218.64,54.12 219.03,54.12 219.43,54.11 219.82,54.11 220.22,54.1 220.61,54.1 221.01,54.1 221.41,54.1 221.8,54.11 222.2,54.12 222.59,54.13 222.99,54.13 223.38,54.12 223.78,54.12 224.17,54.12 224.57,54.12 224.97,54.13 225.36,54.12 225.76,54.12 226.15,54.12 226.55,54.11 226.94,54.11 227.34,54.11 227.73,54.11 228.13,54.11 228.53,54.11 228.92,54.11 229.32,54.1 229.71,54.1 230.11,54.11 230.5,54.12 230.9,54.12 231.29,54.11 231.69,54.11 232.09,54.1 232.48,54.1 232.88,54.1 233.27,54.1 233.67,54.11 234.06,54.11 234.46,54.12 234.86,54.12 235.25,54.11 235.65,54.1 236.04,54.1 236.44,54.11 236.83,54.12 237.23,54.12 237.62,54.12 238.02,54.11 238.42,54.09 238.81,54.08 239.21,54.08 239.6,54.08 240,54.09 240.39,54.09 240.79,54.09 241.18,54.09 241.58,54.09 241.98,54.08 242.37,54.08 242.77,54.09 243.16,54.09 243.56,54.09 243.95,54.09 244.35,54.08 244.75,54.08 245.14,54.09 245.54,54.09 245.93,54.09 246.33,54.09 246.72,54.08 247.12,54.08 247.51,54.08 247.91,54.08 248.31,54.08 248.7,54.09 249.1,54.1 249.49,54.1 249.89,54.1 250.28,54.1 250.68,54.09 251.07,54.08 251.47,54.08 251.87,54.08 252.26,54.08 252.66,54.08 253.05,54.08 253.45,54.08 253.84,54.08 254.24,54.08 254.64,54.08 255.03,54.08 255.43,54.07 255.82,54.07 256.22,54.07 256.61,54.06 257.01,54.06 257.4,54.06 257.8,54.07 258.2,54.08 258.59,54.07 258.99,54.06 259.38,54.04 259.78,54.01 260.17,53.99 260.57,53.97 260.96,53.97 261.36,53.97" stroke-dasharray="none" stroke="rgb(31,120,180)" stroke-width="0.75" opacity="1" stroke-opacity="1" fill="none"/>
          </g>
          <g id="Fig:densplot_01.xyplot.lines.group.5.panel.1.1.1">
            <polyline id="Fig:densplot_01.xyplot.lines.group.5.panel.1.1.1.1" points="59.86,53.97 60.26,53.97 60.65,54.06 61.04,54.78 61.44,58.4 61.83,70.19 62.22,95.98 62.62,134.11 63.01,171.84 63.4,195.12 63.8,199.31 64.19,189.3 64.58,173.44 64.98,157.48 65.37,143.33 65.77,131.31 66.16,121.38 66.55,113.1 66.95,105.95 67.34,99.82 67.73,94.82 68.13,90.8 68.52,87.45 68.91,84.54 69.31,81.93 69.7,79.55 70.09,77.43 70.49,75.62 70.88,74.1 71.27,72.75 71.67,71.48 72.06,70.33 72.45,69.34 72.85,68.41 73.24,67.51 73.63,66.71 74.03,66.04 74.42,65.49 74.81,65.01 75.21,64.49 75.6,63.89 76,63.36 76.39,62.95 76.78,62.62 77.18,62.29 77.57,61.96 77.96,61.66 78.36,61.38 78.75,61.1 79.14,60.82 79.54,60.57 79.93,60.29 80.32,60 80.72,59.77 81.11,59.57 81.5,59.4 81.9,59.24 82.29,59.08 82.68,58.93 83.08,58.75 83.47,58.57 83.86,58.42 84.26,58.32 84.65,58.27 85.04,58.18 85.44,58.04 85.83,57.91 86.22,57.83 86.62,57.74 87.01,57.6 87.41,57.45 87.8,57.34 88.19,57.28 88.59,57.21 88.98,57.12 89.37,57.03 89.77,56.96 90.16,56.92 90.55,56.9 90.95,56.87 91.34,56.8 91.73,56.68 92.13,56.56 92.52,56.48 92.91,56.44 93.31,56.42 93.7,56.4 94.09,56.35 94.49,56.28 94.88,56.19 95.27,56.12 95.67,56.08 96.06,56.07 96.45,56.07 96.85,56.06 97.24,56.04 97.64,55.97 98.03,55.9 98.42,55.85 98.82,55.84 99.21,55.85 99.6,55.83 100,55.79 100.39,55.76 100.78,55.73 101.18,55.65 101.57,55.59 101.96,55.58 102.36,55.56 102.75,55.52 103.14,55.5 103.54,55.49 103.93,55.46 104.32,55.42 104.72,55.4 105.11,55.39 105.5,55.41 105.9,55.42 106.29,55.38 106.68,55.35 107.08,55.33 107.47,55.3 107.87,55.28 108.26,55.24 108.65,55.17 109.05,55.13 109.44,55.15 109.83,55.17 110.23,55.19 110.62,55.18 111.01,55.15 111.41,55.11 111.8,55.09 112.19,55.07 112.59,55.05 112.98,55.02 113.37,54.99 113.77,54.98 114.16,54.98 114.55,54.99 114.95,54.98 115.34,54.95 115.73,54.93 116.13,54.92 116.52,54.9 116.91,54.89 117.31,54.87 117.7,54.88 118.09,54.9 118.49,54.9 118.88,54.87 119.28,54.84 119.67,54.83 120.06,54.83 120.46,54.81 120.85,54.8 121.24,54.78 121.64,54.76 122.03,54.75 122.42,54.74 122.82,54.73 123.21,54.72 123.6,54.7 124,54.71 124.39,54.71 124.78,54.69 125.18,54.68 125.57,54.67 125.96,54.65 126.36,54.64 126.75,54.64 127.14,54.64 127.54,54.64 127.93,54.64 128.32,54.62 128.72,54.59 129.11,54.59 129.51,54.62 129.9,54.62 130.29,54.58 130.69,54.54 131.08,54.54 131.47,54.55 131.87,54.57 132.26,54.58 132.65,54.57 133.05,54.56 133.44,54.56 133.83,54.53 134.23,54.5 134.62,54.48 135.01,54.48 135.41,54.48 135.8,54.49 136.19,54.5 136.59,54.5 136.98,54.5 137.37,54.49 137.77,54.5 138.16,54.49 138.55,54.47 138.95,54.45 139.34,54.44 139.74,54.44 140.13,54.45 140.52,54.45 140.92,54.44 141.31,54.43 141.7,54.41 142.1,54.41 142.49,54.39 142.88,54.39 143.28,54.37 143.67,54.37 144.06,54.38 144.46,54.4 144.85,54.4 145.24,54.38 145.64,54.38 146.03,54.39 146.42,54.4 146.82,54.39 147.21,54.38 147.6,54.38 148,54.36 148.39,54.35 148.78,54.34 149.18,54.33 149.57,54.32 149.96,54.31 150.36,54.32 150.75,54.33 151.15,54.35 151.54,54.35 151.93,54.34 152.33,54.33 152.72,54.33 153.11,54.33 153.51,54.33 153.9,54.32 154.29,54.31 154.69,54.31 155.08,54.31 155.47,54.3 155.87,54.28 156.26,54.26 156.65,54.26 157.05,54.27 157.44,54.28 157.83,54.27 158.23,54.27 158.62,54.26 159.01,54.27 159.41,54.28 159.8,54.28 160.19,54.27 160.59,54.26 160.98,54.27 161.38,54.26 161.77,54.25 162.16,54.25 162.56,54.25 162.95,54.25 163.34,54.25 163.74,54.25 164.13,54.25 164.52,54.24 164.92,54.23 165.31,54.22 165.7,54.22 166.1,54.22 166.49,54.22 166.88,54.22 167.28,54.22 167.67,54.23 168.06,54.23 168.46,54.22 168.85,54.21 169.24,54.21 169.64,54.22 170.03,54.21 170.42,54.2 170.82,54.19 171.21,54.19 171.61,54.2 172,54.21 172.39,54.21 172.79,54.23 173.18,54.24 173.57,54.25 173.97,54.24 174.36,54.22 174.75,54.21 175.15,54.19 175.54,54.18 175.93,54.17 176.33,54.19 176.72,54.2 177.11,54.21 177.51,54.19 177.9,54.17 178.29,54.16 178.69,54.17 179.08,54.19 179.47,54.2 179.87,54.2 180.26,54.2 180.65,54.2 181.05,54.2 181.44,54.2 181.83,54.19 182.23,54.17 182.62,54.16 183.02,54.18 183.41,54.19 183.8,54.18 184.2,54.17 184.59,54.16 184.98,54.15 185.38,54.14 185.77,54.13 186.16,54.13 186.56,54.13 186.95,54.13 187.34,54.14 187.74,54.15 188.13,54.15 188.52,54.15 188.92,54.14 189.31,54.14 189.7,54.13 190.1,54.13 190.49,54.15 190.88,54.15 191.28,54.15 191.67,54.15 192.06,54.14 192.46,54.14 192.85,54.15 193.25,54.16 193.64,54.16 194.03,54.16 194.43,54.15 194.82,54.14 195.21,54.13 195.61,54.13 196,54.13 196.39,54.13 196.79,54.13 197.18,54.13 197.57,54.12 197.97,54.11 198.36,54.1 198.75,54.11 199.15,54.13 199.54,54.13 199.93,54.12 200.33,54.11 200.72,54.11 201.11,54.11 201.51,54.11 201.9,54.11 202.29,54.1 202.69,54.09 203.08,54.08 203.48,54.08 203.87,54.09 204.26,54.1 204.66,54.11 205.05,54.12 205.44,54.12 205.84,54.12 206.23,54.13 206.62,54.13 207.02,54.12 207.41,54.11 207.8,54.11 208.2,54.11 208.59,54.12 208.98,54.13 209.38,54.12 209.77,54.11 210.16,54.1 210.56,54.1 210.95,54.1 211.34,54.11 211.74,54.11 212.13,54.11 212.52,54.1 212.92,54.08 213.31,54.07 213.7,54.08 214.1,54.09 214.49,54.09 214.89,54.08 215.28,54.08 215.67,54.09 216.07,54.1 216.46,54.1 216.85,54.11 217.25,54.11 217.64,54.1 218.03,54.08 218.43,54.07 218.82,54.07 219.21,54.08 219.61,54.09 220,54.09 220.39,54.08 220.79,54.08 221.18,54.08 221.57,54.07 221.97,54.07 222.36,54.07 222.75,54.07 223.15,54.08 223.54,54.09 223.93,54.09 224.33,54.09 224.72,54.08 225.12,54.07 225.51,54.07 225.9,54.07 226.3,54.08 226.69,54.09 227.08,54.08 227.48,54.06 227.87,54.05 228.26,54.05 228.66,54.06 229.05,54.07 229.44,54.08 229.84,54.09 230.23,54.09 230.62,54.09 231.02,54.09 231.41,54.08 231.8,54.07 232.2,54.07 232.59,54.07 232.98,54.08 233.38,54.08 233.77,54.07 234.16,54.06 234.56,54.06 234.95,54.06 235.35,54.06 235.74,54.06 236.13,54.06 236.53,54.07 236.92,54.08 237.31,54.08 237.71,54.08 238.1,54.07 238.49,54.05 238.89,54.05 239.28,54.05 239.67,54.06 240.07,54.05 240.46,54.05 240.85,54.05 241.25,54.06 241.64,54.06 242.03,54.06 242.43,54.07 242.82,54.07 243.21,54.06 243.61,54.06 244,54.07 244.39,54.08 244.79,54.08 245.18,54.07 245.57,54.05 245.97,54.04 246.36,54.04 246.76,54.05 247.15,54.05 247.54,54.05 247.94,54.04 248.33,54.05 248.72,54.06 249.12,54.05 249.51,54.05 249.9,54.05 250.3,54.06 250.69,54.06 251.08,54.07 251.48,54.08 251.87,54.07 252.26,54.06 252.66,54.05 253.05,54.04 253.44,54.04 253.84,54.05 254.23,54.05 254.62,54.05 255.02,54.04 255.41,54.05 255.8,54.05 256.2,54.06 256.59,54.05 256.99,54.05 257.38,54.04 257.77,54.04 258.17,54.05 258.56,54.05 258.95,54.05 259.35,54.04 259.74,54.01 260.13,53.99 260.53,53.97 260.92,53.97" stroke-dasharray="none" stroke="rgb(31,120,180)" stroke-width="0.75" opacity="1" stroke-opacity="1" fill="none"/>
          </g>
          <g id="Fig:densplot_01.xyplot.lines.group.6.panel.1.1.1">
            <polyline id="Fig:densplot_01.xyplot.lines.group.6.panel.1.1.1.1" points="59.46,53.97 59.86,53.97 60.25,54.03 60.65,54.42 61.04,56.27 61.44,62.27 61.83,76.25 62.23,99.77 62.62,128.66 63.02,154.31 63.41,169.59 63.81,172.91 64.2,167.28 64.6,157.17 64.99,146.07 65.39,135.67 65.78,126.38 66.18,118.33 66.57,111.53 66.97,105.8 67.36,100.82 67.76,96.46 68.15,92.71 68.55,89.44 68.94,86.53 69.33,83.89 69.73,81.52 70.12,79.49 70.52,77.76 70.91,76.24 71.31,74.87 71.7,73.61 72.1,72.42 72.49,71.29 72.89,70.23 73.28,69.3 73.68,68.52 74.07,67.85 74.47,67.18 74.86,66.48 75.26,65.79 75.65,65.19 76.05,64.71 76.44,64.34 76.84,63.98 77.23,63.61 77.63,63.26 78.02,62.93 78.42,62.64 78.81,62.36 79.21,62.05 79.6,61.74 80,61.45 80.39,61.18 80.79,60.94 81.18,60.71 81.58,60.49 81.97,60.28 82.37,60.09 82.76,59.91 83.16,59.74 83.55,59.55 83.95,59.36 84.34,59.18 84.74,59.03 85.13,58.89 85.53,58.75 85.92,58.65 86.32,58.57 86.71,58.48 87.11,58.35 87.5,58.21 87.9,58.11 88.29,58.03 88.69,57.92 89.08,57.79 89.48,57.69 89.87,57.6 90.27,57.52 90.66,57.45 91.06,57.4 91.45,57.34 91.85,57.28 92.24,57.21 92.64,57.12 93.03,57.03 93.43,56.95 93.82,56.88 94.22,56.83 94.61,56.76 95.01,56.68 95.4,56.6 95.8,56.56 96.19,56.54 96.59,56.51 96.98,56.47 97.38,56.45 97.77,56.4 98.17,56.31 98.56,56.22 98.95,56.15 99.35,56.13 99.74,56.12 100.14,56.12 100.53,56.12 100.93,56.11 101.32,56.08 101.72,56.05 102.11,55.99 102.51,55.92 102.9,55.85 103.3,55.82 103.69,55.8 104.09,55.79 104.48,55.79 104.88,55.78 105.27,55.77 105.67,55.76 106.06,55.72 106.46,55.66 106.85,55.59 107.25,55.54 107.64,55.52 108.04,55.5 108.43,55.48 108.83,55.46 109.22,55.47 109.62,55.46 110.01,55.44 110.41,55.39 110.8,55.35 111.2,55.33 111.59,55.32 111.99,55.3 112.38,55.27 112.78,55.25 113.17,55.24 113.57,55.23 113.96,55.22 114.36,55.21 114.75,55.19 115.15,55.16 115.54,55.12 115.94,55.09 116.33,55.05 116.73,55.02 117.12,55.01 117.52,55.03 117.91,55.05 118.31,55.06 118.7,55.07 119.1,55.07 119.49,55.07 119.89,55.06 120.28,55.04 120.68,55.01 121.07,54.98 121.47,54.97 121.86,54.95 122.26,54.94 122.65,54.91 123.05,54.89 123.44,54.86 123.84,54.85 124.23,54.84 124.63,54.84 125.02,54.83 125.42,54.82 125.81,54.8 126.21,54.77 126.6,54.76 127,54.76 127.39,54.77 127.78,54.76 128.18,54.75 128.57,54.76 128.97,54.77 129.36,54.77 129.76,54.76 130.15,54.74 130.55,54.71 130.94,54.68 131.34,54.66 131.73,54.66 132.13,54.68 132.52,54.7 132.92,54.71 133.31,54.7 133.71,54.68 134.1,54.65 134.5,54.62 134.89,54.6 135.29,54.59 135.68,54.6 136.08,54.63 136.47,54.64 136.87,54.63 137.26,54.61 137.66,54.6 138.05,54.6 138.45,54.57 138.84,54.55 139.24,54.53 139.63,54.54 140.03,54.55 140.42,54.55 140.82,54.54 141.21,54.52 141.61,54.5 142,54.5 142.4,54.5 142.79,54.51 143.19,54.51 143.58,54.52 143.98,54.53 144.37,54.52 144.77,54.51 145.16,54.48 145.56,54.47 145.95,54.47 146.35,54.47 146.74,54.45 147.14,54.44 147.53,54.42 147.93,54.42 148.32,54.42 148.72,54.43 149.11,54.43 149.51,54.44 149.9,54.44 150.3,54.42 150.69,54.41 151.09,54.39 151.48,54.38 151.88,54.37 152.27,54.37 152.67,54.38 153.06,54.4 153.46,54.41 153.85,54.4 154.25,54.39 154.64,54.38 155.04,54.39 155.43,54.4 155.83,54.39 156.22,54.38 156.61,54.37 157.01,54.35 157.4,54.34 157.8,54.33 158.19,54.33 158.59,54.34 158.98,54.35 159.38,54.35 159.77,54.34 160.17,54.33 160.56,54.31 160.96,54.31 161.35,54.31 161.75,54.31 162.14,54.31 162.54,54.32 162.93,54.33 163.33,54.32 163.72,54.31 164.12,54.3 164.51,54.29 164.91,54.29 165.3,54.29 165.7,54.29 166.09,54.29 166.49,54.29 166.88,54.29 167.28,54.28 167.67,54.28 168.07,54.27 168.46,54.27 168.86,54.28 169.25,54.28 169.65,54.27 170.04,54.26 170.44,54.25 170.83,54.25 171.23,54.26 171.62,54.26 172.02,54.25 172.41,54.24 172.81,54.25 173.2,54.26 173.6,54.27 173.99,54.28 174.39,54.27 174.78,54.26 175.18,54.25 175.57,54.24 175.97,54.23 176.36,54.23 176.76,54.24 177.15,54.25 177.55,54.25 177.94,54.25 178.34,54.25 178.73,54.25 179.13,54.25 179.52,54.23 179.92,54.22 180.31,54.21 180.71,54.2 181.1,54.2 181.5,54.2 181.89,54.22 182.29,54.23 182.68,54.24 183.08,54.24 183.47,54.23 183.87,54.23 184.26,54.22 184.66,54.22 185.05,54.22 185.44,54.23 185.84,54.22 186.23,54.21 186.63,54.2 187.02,54.19 187.42,54.18 187.81,54.18 188.21,54.19 188.6,54.19 189,54.19 189.39,54.19 189.79,54.18 190.18,54.17 190.58,54.17 190.97,54.17 191.37,54.17 191.76,54.17 192.16,54.17 192.55,54.17 192.95,54.17 193.34,54.16 193.74,54.16 194.13,54.16 194.53,54.16 194.92,54.16 195.32,54.17 195.71,54.18 196.11,54.18 196.5,54.18 196.9,54.17 197.29,54.16 197.69,54.17 198.08,54.18 198.48,54.17 198.87,54.15 199.27,54.14 199.66,54.14 200.06,54.14 200.45,54.14 200.85,54.14 201.24,54.14 201.64,54.14 202.03,54.14 202.43,54.14 202.82,54.13 203.22,54.14 203.61,54.15 204.01,54.15 204.4,54.14 204.8,54.13 205.19,54.12 205.59,54.12 205.98,54.12 206.38,54.12 206.77,54.12 207.17,54.11 207.56,54.11 207.96,54.11 208.35,54.12 208.75,54.13 209.14,54.13 209.54,54.13 209.93,54.12 210.33,54.11 210.72,54.1 211.12,54.11 211.51,54.11 211.91,54.12 212.3,54.13 212.7,54.12 213.09,54.12 213.49,54.13 213.88,54.13 214.28,54.12 214.67,54.12 215.06,54.11 215.46,54.1 215.85,54.1 216.25,54.1 216.64,54.1 217.04,54.11 217.43,54.12 217.83,54.12 218.22,54.13 218.62,54.12 219.01,54.11 219.41,54.11 219.8,54.11 220.2,54.11 220.59,54.11 220.99,54.12 221.38,54.12 221.78,54.13 222.17,54.12 222.57,54.11 222.96,54.1 223.36,54.1 223.75,54.1 224.15,54.1 224.54,54.1 224.94,54.1 225.33,54.08 225.73,54.07 226.12,54.07 226.52,54.08 226.91,54.08 227.31,54.09 227.7,54.09 228.1,54.1 228.49,54.1 228.89,54.1 229.28,54.09 229.68,54.09 230.07,54.09 230.47,54.09 230.86,54.09 231.26,54.09 231.65,54.09 232.05,54.09 232.44,54.09 232.84,54.09 233.23,54.08 233.63,54.08 234.02,54.07 234.42,54.06 234.81,54.06 235.21,54.07 235.6,54.07 236,54.08 236.39,54.08 236.79,54.09 237.18,54.09 237.58,54.09 237.97,54.07 238.37,54.07 238.76,54.07 239.16,54.08 239.55,54.08 239.95,54.08 240.34,54.09 240.74,54.09 241.13,54.09 241.53,54.08 241.92,54.07 242.32,54.07 242.71,54.07 243.11,54.06 243.5,54.06 243.89,54.06 244.29,54.06 244.68,54.06 245.08,54.06 245.47,54.06 245.87,54.07 246.26,54.06 246.66,54.06 247.05,54.05 247.45,54.05 247.84,54.05 248.24,54.06 248.63,54.07 249.03,54.08 249.42,54.08 249.82,54.09 250.21,54.09 250.61,54.08 251,54.07 251.4,54.06 251.79,54.06 252.19,54.06 252.58,54.06 252.98,54.06 253.37,54.06 253.77,54.06 254.16,54.06 254.56,54.05 254.95,54.05 255.35,54.05 255.74,54.06 256.14,54.06 256.53,54.06 256.93,54.06 257.32,54.05 257.72,54.05 258.11,54.05 258.51,54.05 258.9,54.05 259.3,54.04 259.69,54.02 260.09,53.99 260.48,53.97 260.88,53.97 261.27,53.97" stroke-dasharray="none" stroke="rgb(31,120,180)" stroke-width="0.75" opacity="1" stroke-opacity="1" fill="none"/>
          </g>
          <g id="Fig:densplot_01.xyplot.lines.group.7.panel.1.1.1">
            <polyline id="Fig:densplot_01.xyplot.lines.group.7.panel.1.1.1.1" points="59.49,53.97 59.89,53.97 60.28,53.98 60.68,54.07 61.07,54.6 61.47,56.73 61.86,62.93 62.26,76.14 62.65,97.06 63.05,122.04 63.44,144.44 63.84,158.7 64.23,163.42 64.63,160.74 65.02,153.78 65.41,144.9 65.81,135.68 66.2,127.12 66.6,119.6 66.99,113.12 67.39,107.51 67.78,102.64 68.18,98.41 68.57,94.76 68.97,91.6 69.36,88.75 69.76,86.11 70.15,83.64 70.55,81.38 70.94,79.36 71.34,77.63 71.73,76.2 72.13,74.93 72.52,73.72 72.92,72.54 73.31,71.43 73.71,70.42 74.1,69.53 74.5,68.76 74.89,68.04 75.29,67.36 75.68,66.7 76.08,66.1 76.47,65.57 76.87,65.12 77.26,64.73 77.66,64.33 78.05,63.92 78.45,63.5 78.84,63.11 79.24,62.79 79.63,62.51 80.03,62.22 80.42,61.9 80.82,61.59 81.21,61.31 81.61,61.07 82,60.84 82.4,60.63 82.79,60.42 83.19,60.22 83.58,60.01 83.98,59.83 84.37,59.68 84.77,59.56 85.16,59.45 85.56,59.3 85.95,59.1 86.35,58.89 86.74,58.7 87.14,58.55 87.53,58.43 87.93,58.32 88.32,58.21 88.72,58.13 89.11,58.06 89.51,57.97 89.9,57.87 90.3,57.78 90.69,57.7 91.09,57.6 91.48,57.51 91.88,57.42 92.27,57.34 92.67,57.26 93.06,57.18 93.46,57.11 93.85,57.04 94.25,56.97 94.64,56.92 95.04,56.85 95.43,56.75 95.83,56.67 96.22,56.63 96.62,56.61 97.01,56.58 97.41,56.53 97.8,56.46 98.2,56.38 98.59,56.3 98.99,56.25 99.38,56.22 99.78,56.2 100.17,56.18 100.57,56.17 100.96,56.17 101.36,56.13 101.75,56.07 102.15,56 102.54,55.95 102.94,55.89 103.33,55.84 103.73,55.81 104.12,55.79 104.52,55.77 104.91,55.74 105.31,55.71 105.7,55.7 106.1,55.69 106.49,55.67 106.89,55.64 107.28,55.6 107.68,55.56 108.07,55.53 108.47,55.5 108.86,55.49 109.26,55.48 109.65,55.46 110.05,55.42 110.44,55.39 110.84,55.37 111.23,55.35 111.62,55.32 112.02,55.31 112.41,55.3 112.81,55.28 113.2,55.23 113.6,55.17 113.99,55.14 114.39,55.14 114.78,55.15 115.18,55.15 115.57,55.14 115.97,55.12 116.36,55.08 116.76,55.05 117.15,55.04 117.55,55.04 117.94,55.05 118.34,55.05 118.73,55.04 119.13,55.04 119.52,55.04 119.92,55.03 120.31,55.01 120.71,54.98 121.1,54.96 121.5,54.95 121.89,54.93 122.29,54.91 122.68,54.88 123.08,54.87 123.47,54.87 123.87,54.89 124.26,54.9 124.66,54.88 125.05,54.84 125.45,54.81 125.84,54.79 126.24,54.79 126.63,54.78 127.03,54.77 127.42,54.75 127.82,54.74 128.21,54.74 128.61,54.75 129,54.77 129.4,54.77 129.79,54.75 130.19,54.73 130.58,54.72 130.98,54.72 131.37,54.71 131.77,54.68 132.16,54.65 132.56,54.62 132.95,54.62 133.35,54.63 133.74,54.64 134.14,54.64 134.53,54.63 134.93,54.63 135.32,54.63 135.72,54.63 136.11,54.64 136.51,54.64 136.9,54.63 137.3,54.62 137.69,54.61 138.09,54.59 138.48,54.58 138.88,54.57 139.27,54.58 139.67,54.59 140.06,54.58 140.46,54.56 140.85,54.55 141.25,54.54 141.64,54.52 142.04,54.51 142.43,54.5 142.83,54.49 143.22,54.48 143.62,54.49 144.01,54.51 144.41,54.51 144.8,54.51 145.2,54.49 145.59,54.47 145.99,54.45 146.38,54.43 146.78,54.41 147.17,54.41 147.57,54.41 147.96,54.41 148.36,54.41 148.75,54.41 149.15,54.41 149.54,54.4 149.94,54.4 150.33,54.4 150.73,54.41 151.12,54.4 151.52,54.4 151.91,54.39 152.31,54.39 152.7,54.38 153.1,54.37 153.49,54.37 153.89,54.37 154.28,54.37 154.68,54.36 155.07,54.36 155.47,54.35 155.86,54.35 156.26,54.36 156.65,54.35 157.04,54.34 157.44,54.33 157.83,54.31 158.23,54.3 158.62,54.29 159.02,54.3 159.41,54.31 159.81,54.31 160.2,54.32 160.6,54.32 160.99,54.34 161.39,54.37 161.78,54.38 162.18,54.37 162.57,54.35 162.97,54.35 163.36,54.35 163.76,54.34 164.15,54.32 164.55,54.32 164.94,54.31 165.34,54.29 165.73,54.28 166.13,54.27 166.52,54.26 166.92,54.27 167.31,54.28 167.71,54.3 168.1,54.3 168.5,54.29 168.89,54.27 169.29,54.26 169.68,54.26 170.08,54.26 170.47,54.24 170.87,54.23 171.26,54.22 171.66,54.23 172.05,54.23 172.45,54.24 172.84,54.25 173.24,54.25 173.63,54.24 174.03,54.24 174.42,54.25 174.82,54.26 175.21,54.26 175.61,54.25 176,54.23 176.4,54.22 176.79,54.21 177.19,54.21 177.58,54.22 177.98,54.21 178.37,54.2 178.77,54.2 179.16,54.19 179.56,54.2 179.95,54.2 180.35,54.2 180.74,54.21 181.14,54.21 181.53,54.21 181.93,54.21 182.32,54.21 182.72,54.22 183.11,54.23 183.51,54.24 183.9,54.24 184.3,54.23 184.69,54.21 185.09,54.19 185.48,54.18 185.88,54.19 186.27,54.2 186.67,54.2 187.06,54.19 187.46,54.19 187.85,54.19 188.25,54.19 188.64,54.18 189.04,54.18 189.43,54.18 189.83,54.18 190.22,54.19 190.62,54.18 191.01,54.18 191.41,54.18 191.8,54.17 192.2,54.17 192.59,54.17 192.99,54.17 193.38,54.16 193.78,54.15 194.17,54.14 194.57,54.15 194.96,54.15 195.36,54.14 195.75,54.14 196.15,54.15 196.54,54.15 196.94,54.16 197.33,54.16 197.73,54.15 198.12,54.14 198.52,54.14 198.91,54.14 199.31,54.14 199.7,54.14 200.1,54.13 200.49,54.14 200.89,54.14 201.28,54.15 201.68,54.14 202.07,54.14 202.47,54.13 202.86,54.13 203.25,54.13 203.65,54.13 204.04,54.13 204.44,54.13 204.83,54.13 205.23,54.13 205.62,54.14 206.02,54.14 206.41,54.13 206.81,54.13 207.2,54.12 207.6,54.12 207.99,54.11 208.39,54.1 208.78,54.1 209.18,54.11 209.57,54.12 209.97,54.12 210.36,54.12 210.76,54.11 211.15,54.1 211.55,54.1 211.94,54.11 212.34,54.13 212.73,54.14 213.13,54.14 213.52,54.12 213.92,54.11 214.31,54.1 214.71,54.1 215.1,54.1 215.5,54.1 215.89,54.11 216.29,54.11 216.68,54.11 217.08,54.1 217.47,54.1 217.87,54.09 218.26,54.09 218.66,54.09 219.05,54.1 219.45,54.1 219.84,54.11 220.24,54.12 220.63,54.12 221.03,54.12 221.42,54.11 221.82,54.1 222.21,54.09 222.61,54.09 223,54.09 223.4,54.09 223.79,54.09 224.19,54.09 224.58,54.1 224.98,54.1 225.37,54.1 225.77,54.11 226.16,54.11 226.56,54.11 226.95,54.11 227.35,54.1 227.74,54.09 228.14,54.09 228.53,54.1 228.93,54.09 229.32,54.09 229.72,54.08 230.11,54.08 230.51,54.08 230.9,54.08 231.3,54.09 231.69,54.09 232.09,54.09 232.48,54.09 232.88,54.09 233.27,54.1 233.67,54.1 234.06,54.11 234.46,54.11 234.85,54.11 235.25,54.1 235.64,54.09 236.04,54.09 236.43,54.09 236.83,54.1 237.22,54.09 237.62,54.08 238.01,54.07 238.41,54.07 238.8,54.07 239.2,54.07 239.59,54.07 239.99,54.07 240.38,54.07 240.78,54.07 241.17,54.07 241.57,54.06 241.96,54.06 242.36,54.07 242.75,54.07 243.15,54.07 243.54,54.07 243.94,54.07 244.33,54.07 244.73,54.07 245.12,54.06 245.52,54.07 245.91,54.07 246.31,54.06 246.7,54.06 247.1,54.07 247.49,54.07 247.89,54.07 248.28,54.07 248.68,54.07 249.07,54.07 249.46,54.06 249.86,54.06 250.25,54.06 250.65,54.06 251.04,54.06 251.44,54.06 251.83,54.07 252.23,54.07 252.62,54.06 253.02,54.06 253.41,54.05 253.81,54.05 254.2,54.06 254.6,54.06 254.99,54.06 255.39,54.05 255.78,54.05 256.18,54.05 256.57,54.05 256.97,54.06 257.36,54.06 257.76,54.06 258.15,54.06 258.55,54.07 258.94,54.07 259.34,54.06 259.73,54.03 260.13,54 260.52,53.98 260.92,53.97 261.31,53.97" stroke-dasharray="none" stroke="rgb(31,120,180)" stroke-width="0.75" opacity="1" stroke-opacity="1" fill="none"/>
          </g>
          <g id="Fig:densplot_01.xyplot.lines.group.8.panel.1.1.1">
            <polyline id="Fig:densplot_01.xyplot.lines.group.8.panel.1.1.1.1" points="59.64,53.97 60.03,53.97 60.43,53.99 60.82,54.09 61.22,54.45 61.61,55.56 62.01,58.34 62.41,64.08 62.8,73.88 63.2,87.82 63.59,104.31 63.99,120.41 64.38,133.08 64.78,140.47 65.17,142.44 65.57,140.14 65.97,135.26 66.36,129.27 66.76,123.16 67.15,117.39 67.55,112.09 67.94,107.29 68.34,102.95 68.74,99.03 69.13,95.54 69.53,92.49 69.92,89.81 70.32,87.43 70.71,85.28 71.11,83.32 71.51,81.53 71.9,79.89 72.3,78.37 72.69,76.96 73.09,75.67 73.48,74.48 73.88,73.38 74.27,72.34 74.67,71.37 75.07,70.5 75.46,69.72 75.86,69 76.25,68.35 76.65,67.74 77.04,67.19 77.44,66.67 77.84,66.15 78.23,65.64 78.63,65.16 79.02,64.74 79.42,64.39 79.81,64.07 80.21,63.75 80.6,63.43 81,63.13 81.4,62.86 81.79,62.61 82.19,62.35 82.58,62.08 82.98,61.8 83.37,61.53 83.77,61.28 84.17,61.05 84.56,60.85 84.96,60.68 85.35,60.53 85.75,60.36 86.14,60.18 86.54,59.99 86.93,59.81 87.33,59.64 87.73,59.47 88.12,59.3 88.52,59.15 88.91,59.02 89.31,58.9 89.7,58.79 90.1,58.68 90.5,58.57 90.89,58.47 91.29,58.39 91.68,58.32 92.08,58.24 92.47,58.16 92.87,58.07 93.26,57.97 93.66,57.87 94.06,57.78 94.45,57.69 94.85,57.58 95.24,57.46 95.64,57.36 96.03,57.28 96.43,57.23 96.83,57.19 97.22,57.16 97.62,57.12 98.01,57.07 98.41,57 98.8,56.93 99.2,56.88 99.59,56.86 99.99,56.85 100.39,56.83 100.78,56.81 101.18,56.79 101.57,56.76 101.97,56.7 102.36,56.62 102.76,56.54 103.16,56.47 103.55,56.41 103.95,56.38 104.34,56.35 104.74,56.33 105.13,56.3 105.53,56.25 105.93,56.21 106.32,56.17 106.72,56.13 107.11,56.09 107.51,56.05 107.9,56.01 108.3,55.99 108.69,55.97 109.09,55.96 109.49,55.96 109.88,55.95 110.28,55.94 110.67,55.92 111.07,55.88 111.46,55.83 111.86,55.79 112.26,55.76 112.65,55.72 113.05,55.69 113.44,55.66 113.84,55.63 114.23,55.61 114.63,55.6 115.02,55.59 115.42,55.57 115.82,55.53 116.21,55.49 116.61,55.45 117,55.43 117.4,55.43 117.79,55.44 118.19,55.44 118.59,55.42 118.98,55.39 119.38,55.36 119.77,55.34 120.17,55.33 120.56,55.32 120.96,55.31 121.35,55.29 121.75,55.27 122.15,55.24 122.54,55.21 122.94,55.18 123.33,55.16 123.73,55.15 124.12,55.14 124.52,55.13 124.92,55.11 125.31,55.1 125.71,55.08 126.1,55.06 126.5,55.04 126.89,55.04 127.29,55.04 127.68,55.05 128.08,55.06 128.48,55.05 128.87,55.04 129.27,55.02 129.66,55.01 130.06,54.99 130.45,54.97 130.85,54.96 131.25,54.95 131.64,54.94 132.04,54.92 132.43,54.91 132.83,54.91 133.22,54.9 133.62,54.89 134.01,54.88 134.41,54.87 134.81,54.87 135.2,54.86 135.6,54.85 135.99,54.84 136.39,54.84 136.78,54.84 137.18,54.83 137.58,54.82 137.97,54.81 138.37,54.79 138.76,54.75 139.16,54.72 139.55,54.7 139.95,54.69 140.34,54.7 140.74,54.72 141.14,54.73 141.53,54.73 141.93,54.71 142.32,54.69 142.72,54.68 143.11,54.67 143.51,54.67 143.91,54.67 144.3,54.66 144.7,54.65 145.09,54.64 145.49,54.63 145.88,54.62 146.28,54.63 146.68,54.63 147.07,54.64 147.47,54.64 147.86,54.64 148.26,54.63 148.65,54.61 149.05,54.61 149.44,54.6 149.84,54.61 150.24,54.62 150.63,54.63 151.03,54.62 151.42,54.61 151.82,54.59 152.21,54.58 152.61,54.57 153.01,54.56 153.4,54.55 153.8,54.54 154.19,54.54 154.59,54.53 154.98,54.53 155.38,54.52 155.77,54.51 156.17,54.5 156.57,54.49 156.96,54.48 157.36,54.47 157.75,54.47 158.15,54.47 158.54,54.49 158.94,54.5 159.34,54.51 159.73,54.5 160.13,54.5 160.52,54.49 160.92,54.48 161.31,54.47 161.71,54.45 162.1,54.45 162.5,54.44 162.9,54.44 163.29,54.44 163.69,54.44 164.08,54.44 164.48,54.43 164.87,54.43 165.27,54.43 165.67,54.44 166.06,54.44 166.46,54.45 166.85,54.45 167.25,54.45 167.64,54.45 168.04,54.45 168.43,54.43 168.83,54.42 169.23,54.41 169.62,54.4 170.02,54.39 170.41,54.38 170.81,54.37 171.2,54.36 171.6,54.35 172,54.35 172.39,54.35 172.79,54.35 173.18,54.35 173.58,54.35 173.97,54.34 174.37,54.34 174.76,54.34 175.16,54.34 175.56,54.34 175.95,54.33 176.35,54.33 176.74,54.34 177.14,54.34 177.53,54.33 177.93,54.33 178.33,54.32 178.72,54.32 179.12,54.32 179.51,54.32 179.91,54.31 180.3,54.31 180.7,54.31 181.09,54.31 181.49,54.31 181.89,54.32 182.28,54.32 182.68,54.31 183.07,54.3 183.47,54.3 183.86,54.29 184.26,54.29 184.66,54.29 185.05,54.29 185.45,54.29 185.84,54.28 186.24,54.28 186.63,54.28 187.03,54.29 187.43,54.29 187.82,54.28 188.22,54.28 188.61,54.28 189.01,54.28 189.4,54.29 189.8,54.28 190.19,54.28 190.59,54.27 190.99,54.26 191.38,54.24 191.78,54.23 192.17,54.23 192.57,54.24 192.96,54.24 193.36,54.25 193.76,54.25 194.15,54.26 194.55,54.26 194.94,54.26 195.34,54.25 195.73,54.25 196.13,54.24 196.52,54.24 196.92,54.24 197.32,54.24 197.71,54.25 198.11,54.25 198.5,54.26 198.9,54.25 199.29,54.24 199.69,54.23 200.09,54.22 200.48,54.22 200.88,54.22 201.27,54.21 201.67,54.21 202.06,54.2 202.46,54.2 202.85,54.2 203.25,54.2 203.65,54.2 204.04,54.21 204.44,54.21 204.83,54.21 205.23,54.21 205.62,54.2 206.02,54.2 206.42,54.2 206.81,54.2 207.21,54.19 207.6,54.19 208,54.18 208.39,54.18 208.79,54.17 209.18,54.18 209.58,54.18 209.98,54.19 210.37,54.19 210.77,54.2 211.16,54.2 211.56,54.2 211.95,54.2 212.35,54.19 212.75,54.18 213.14,54.18 213.54,54.17 213.93,54.16 214.33,54.15 214.72,54.15 215.12,54.15 215.51,54.16 215.91,54.16 216.31,54.16 216.7,54.16 217.1,54.16 217.49,54.17 217.89,54.17 218.28,54.18 218.68,54.18 219.08,54.18 219.47,54.17 219.87,54.16 220.26,54.15 220.66,54.14 221.05,54.14 221.45,54.14 221.84,54.14 222.24,54.14 222.64,54.14 223.03,54.14 223.43,54.15 223.82,54.15 224.22,54.16 224.61,54.16 225.01,54.16 225.41,54.16 225.8,54.16 226.2,54.16 226.59,54.16 226.99,54.16 227.38,54.15 227.78,54.15 228.18,54.15 228.57,54.15 228.97,54.15 229.36,54.15 229.76,54.15 230.15,54.14 230.55,54.14 230.94,54.15 231.34,54.15 231.74,54.15 232.13,54.15 232.53,54.14 232.92,54.14 233.32,54.14 233.71,54.14 234.11,54.14 234.51,54.14 234.9,54.14 235.3,54.14 235.69,54.13 236.09,54.13 236.48,54.12 236.88,54.12 237.27,54.12 237.67,54.13 238.07,54.13 238.46,54.12 238.86,54.12 239.25,54.11 239.65,54.11 240.04,54.11 240.44,54.11 240.84,54.11 241.23,54.11 241.63,54.11 242.02,54.12 242.42,54.11 242.81,54.11 243.21,54.12 243.6,54.12 244,54.12 244.4,54.12 244.79,54.12 245.19,54.12 245.58,54.12 245.98,54.12 246.37,54.12 246.77,54.12 247.17,54.12 247.56,54.12 247.96,54.12 248.35,54.11 248.75,54.11 249.14,54.11 249.54,54.11 249.93,54.11 250.33,54.11 250.73,54.1 251.12,54.1 251.52,54.09 251.91,54.1 252.31,54.1 252.7,54.1 253.1,54.1 253.5,54.09 253.89,54.09 254.29,54.09 254.68,54.09 255.08,54.1 255.47,54.1 255.87,54.1 256.26,54.1 256.66,54.1 257.06,54.1 257.45,54.1 257.85,54.11 258.24,54.11 258.64,54.1 259.03,54.09 259.43,54.06 259.83,54.03 260.22,54 260.62,53.98 261.01,53.97 261.41,53.97 261.8,53.97" stroke-dasharray="none" stroke="rgb(31,120,180)" stroke-width="0.75" opacity="1" stroke-opacity="1" fill="none"/>
          </g>
          <g id="Fig:densplot_01.xyplot.lines.group.9.panel.1.1.1">
            <polyline id="Fig:densplot_01.xyplot.lines.group.9.panel.1.1.1.1" points="59,53.97 59.4,53.98 59.79,54.05 60.19,54.43 60.59,55.95 60.98,60.5 61.38,70.75 61.77,88.38 62.17,111.68 62.57,135.22 62.96,152.82 63.36,161.1 63.76,160.65 64.15,154.43 64.55,145.62 64.94,136.35 65.34,127.58 65.74,119.66 66.13,112.79 66.53,107.03 66.93,102.2 67.32,97.99 67.72,94.23 68.11,90.86 68.51,87.9 68.91,85.28 69.3,82.94 69.7,80.82 70.1,78.93 70.49,77.24 70.89,75.77 71.28,74.45 71.68,73.23 72.08,72.09 72.47,71.06 72.87,70.14 73.27,69.29 73.66,68.48 74.06,67.71 74.46,67.05 74.85,66.51 75.25,66.05 75.64,65.61 76.04,65.17 76.44,64.72 76.83,64.28 77.23,63.86 77.63,63.46 78.02,63.09 78.42,62.76 78.81,62.47 79.21,62.18 79.61,61.9 80,61.64 80.4,61.4 80.8,61.17 81.19,60.94 81.59,60.74 81.98,60.57 82.38,60.43 82.78,60.28 83.17,60.11 83.57,59.93 83.97,59.75 84.36,59.57 84.76,59.41 85.15,59.26 85.55,59.12 85.95,58.99 86.34,58.84 86.74,58.67 87.14,58.49 87.53,58.36 87.93,58.29 88.33,58.25 88.72,58.2 89.12,58.11 89.51,57.99 89.91,57.86 90.31,57.74 90.7,57.62 91.1,57.53 91.5,57.47 91.89,57.41 92.29,57.35 92.68,57.29 93.08,57.24 93.48,57.2 93.87,57.16 94.27,57.1 94.67,57.04 95.06,56.99 95.46,56.94 95.85,56.9 96.25,56.86 96.65,56.82 97.04,56.76 97.44,56.68 97.84,56.6 98.23,56.54 98.63,56.49 99.02,56.45 99.42,56.42 99.82,56.4 100.21,56.37 100.61,56.31 101.01,56.23 101.4,56.15 101.8,56.09 102.19,56.06 102.59,56.06 102.99,56.07 103.38,56.08 103.78,56.07 104.18,56.03 104.57,55.98 104.97,55.93 105.37,55.9 105.76,55.87 106.16,55.85 106.55,55.81 106.95,55.79 107.35,55.77 107.74,55.74 108.14,55.7 108.54,55.68 108.93,55.67 109.33,55.67 109.72,55.65 110.12,55.62 110.52,55.59 110.91,55.56 111.31,55.52 111.71,55.5 112.1,55.47 112.5,55.44 112.89,55.41 113.29,55.39 113.69,55.37 114.08,55.35 114.48,55.34 114.88,55.33 115.27,55.32 115.67,55.31 116.06,55.3 116.46,55.29 116.86,55.28 117.25,55.28 117.65,55.28 118.05,55.26 118.44,55.24 118.84,55.21 119.24,55.18 119.63,55.15 120.03,55.11 120.42,55.09 120.82,55.07 121.22,55.06 121.61,55.06 122.01,55.05 122.41,55.05 122.8,55.05 123.2,55.05 123.59,55.03 123.99,55.01 124.39,54.99 124.78,54.98 125.18,54.96 125.58,54.94 125.97,54.94 126.37,54.95 126.76,54.95 127.16,54.94 127.56,54.92 127.95,54.9 128.35,54.88 128.75,54.86 129.14,54.83 129.54,54.82 129.93,54.83 130.33,54.85 130.73,54.86 131.12,54.87 131.52,54.86 131.92,54.85 132.31,54.84 132.71,54.83 133.1,54.81 133.5,54.79 133.9,54.77 134.29,54.75 134.69,54.73 135.09,54.71 135.48,54.71 135.88,54.7 136.28,54.7 136.67,54.7 137.07,54.7 137.46,54.7 137.86,54.69 138.26,54.68 138.65,54.67 139.05,54.66 139.45,54.66 139.84,54.66 140.24,54.67 140.63,54.67 141.03,54.65 141.43,54.63 141.82,54.61 142.22,54.6 142.62,54.6 143.01,54.61 143.41,54.61 143.8,54.6 144.2,54.59 144.6,54.59 144.99,54.6 145.39,54.6 145.79,54.6 146.18,54.6 146.58,54.59 146.97,54.58 147.37,54.56 147.77,54.55 148.16,54.54 148.56,54.54 148.96,54.53 149.35,54.53 149.75,54.53 150.15,54.52 150.54,54.5 150.94,54.5 151.33,54.5 151.73,54.52 152.13,54.54 152.52,54.54 152.92,54.52 153.32,54.5 153.71,54.48 154.11,54.47 154.5,54.46 154.9,54.46 155.3,54.45 155.69,54.43 156.09,54.43 156.49,54.42 156.88,54.42 157.28,54.43 157.67,54.42 158.07,54.41 158.47,54.4 158.86,54.39 159.26,54.39 159.66,54.41 160.05,54.42 160.45,54.43 160.84,54.43 161.24,54.42 161.64,54.42 162.03,54.41 162.43,54.39 162.83,54.37 163.22,54.36 163.62,54.36 164.01,54.36 164.41,54.37 164.81,54.37 165.2,54.38 165.6,54.39 166,54.39 166.39,54.38 166.79,54.38 167.19,54.37 167.58,54.37 167.98,54.36 168.37,54.35 168.77,54.33 169.17,54.31 169.56,54.31 169.96,54.32 170.36,54.32 170.75,54.31 171.15,54.3 171.54,54.3 171.94,54.31 172.34,54.31 172.73,54.31 173.13,54.31 173.53,54.3 173.92,54.29 174.32,54.3 174.71,54.3 175.11,54.31 175.51,54.31 175.9,54.32 176.3,54.32 176.7,54.32 177.09,54.31 177.49,54.3 177.88,54.3 178.28,54.29 178.68,54.29 179.07,54.29 179.47,54.28 179.87,54.28 180.26,54.28 180.66,54.27 181.06,54.27 181.45,54.26 181.85,54.27 182.24,54.27 182.64,54.27 183.04,54.26 183.43,54.26 183.83,54.25 184.23,54.25 184.62,54.25 185.02,54.25 185.41,54.25 185.81,54.25 186.21,54.26 186.6,54.27 187,54.27 187.4,54.27 187.79,54.25 188.19,54.24 188.58,54.24 188.98,54.25 189.38,54.26 189.77,54.26 190.17,54.26 190.57,54.26 190.96,54.25 191.36,54.24 191.75,54.24 192.15,54.23 192.55,54.22 192.94,54.22 193.34,54.21 193.74,54.21 194.13,54.21 194.53,54.22 194.92,54.22 195.32,54.22 195.72,54.22 196.11,54.23 196.51,54.23 196.91,54.22 197.3,54.21 197.7,54.2 198.1,54.2 198.49,54.2 198.89,54.19 199.28,54.19 199.68,54.19 200.08,54.19 200.47,54.19 200.87,54.19 201.27,54.2 201.66,54.2 202.06,54.2 202.45,54.2 202.85,54.19 203.25,54.19 203.64,54.18 204.04,54.18 204.44,54.18 204.83,54.18 205.23,54.17 205.62,54.17 206.02,54.16 206.42,54.16 206.81,54.17 207.21,54.17 207.61,54.18 208,54.18 208.4,54.18 208.79,54.17 209.19,54.17 209.59,54.16 209.98,54.16 210.38,54.16 210.78,54.15 211.17,54.15 211.57,54.14 211.97,54.14 212.36,54.14 212.76,54.14 213.15,54.14 213.55,54.15 213.95,54.16 214.34,54.17 214.74,54.16 215.14,54.16 215.53,54.15 215.93,54.15 216.32,54.15 216.72,54.15 217.12,54.15 217.51,54.14 217.91,54.14 218.31,54.14 218.7,54.14 219.1,54.14 219.49,54.14 219.89,54.14 220.29,54.13 220.68,54.14 221.08,54.15 221.48,54.15 221.87,54.15 222.27,54.14 222.66,54.13 223.06,54.13 223.46,54.12 223.85,54.13 224.25,54.13 224.65,54.14 225.04,54.14 225.44,54.13 225.84,54.13 226.23,54.14 226.63,54.14 227.02,54.14 227.42,54.14 227.82,54.13 228.21,54.13 228.61,54.12 229.01,54.12 229.4,54.12 229.8,54.13 230.19,54.13 230.59,54.13 230.99,54.13 231.38,54.13 231.78,54.13 232.18,54.13 232.57,54.13 232.97,54.12 233.36,54.12 233.76,54.12 234.16,54.13 234.55,54.13 234.95,54.12 235.35,54.13 235.74,54.14 236.14,54.15 236.53,54.15 236.93,54.14 237.33,54.13 237.72,54.12 238.12,54.12 238.52,54.12 238.91,54.12 239.31,54.11 239.7,54.11 240.1,54.1 240.5,54.1 240.89,54.1 241.29,54.1 241.69,54.11 242.08,54.11 242.48,54.11 242.88,54.11 243.27,54.1 243.67,54.09 244.06,54.09 244.46,54.09 244.86,54.09 245.25,54.08 245.65,54.08 246.05,54.08 246.44,54.08 246.84,54.09 247.23,54.1 247.63,54.1 248.03,54.09 248.42,54.08 248.82,54.09 249.22,54.09 249.61,54.09 250.01,54.1 250.4,54.09 250.8,54.09 251.2,54.08 251.59,54.07 251.99,54.07 252.39,54.07 252.78,54.08 253.18,54.09 253.57,54.09 253.97,54.09 254.37,54.08 254.76,54.08 255.16,54.08 255.56,54.09 255.95,54.08 256.35,54.08 256.75,54.07 257.14,54.07 257.54,54.07 257.93,54.07 258.33,54.07 258.73,54.06 259.12,54.05 259.52,54.03 259.92,54.01 260.31,53.99 260.71,53.97 261.1,53.97 261.5,53.97" stroke-dasharray="none" stroke="rgb(31,120,180)" stroke-width="0.75" opacity="1" stroke-opacity="1" fill="none"/>
          </g>
          <g id="Fig:densplot_01.xyplot.lines.group.10.panel.1.1.1">
            <polyline id="Fig:densplot_01.xyplot.lines.group.10.panel.1.1.1.1" points="59.76,53.97 60.15,53.98 60.55,54.09 60.94,54.76 61.33,57.57 61.73,65.83 62.12,83.36 62.52,110.45 62.91,141.05 63.31,165.64 63.7,177.79 64.09,177.49 64.49,169.1 64.88,157.48 65.28,145.61 65.67,134.78 66.06,125.36 66.46,117.18 66.85,110.11 67.25,104.13 67.64,99.08 68.04,94.74 68.43,90.93 68.82,87.61 69.22,84.76 69.61,82.3 70.01,80.09 70.4,78.07 70.79,76.26 71.19,74.68 71.58,73.34 71.98,72.18 72.37,71.16 72.77,70.2 73.16,69.31 73.55,68.56 73.95,67.85 74.34,67.05 74.74,66.32 75.13,65.77 75.52,65.28 75.92,64.8 76.31,64.38 76.71,64 77.1,63.63 77.49,63.24 77.89,62.85 78.28,62.5 78.68,62.2 79.07,61.87 79.47,61.5 79.86,61.17 80.25,60.9 80.65,60.66 81.04,60.43 81.44,60.21 81.83,60.02 82.22,59.86 82.62,59.7 83.01,59.54 83.41,59.39 83.8,59.23 84.2,59.08 84.59,58.94 84.98,58.82 85.38,58.72 85.77,58.59 86.17,58.44 86.56,58.29 86.95,58.17 87.35,58.03 87.74,57.89 88.14,57.79 88.53,57.73 88.92,57.69 89.32,57.6 89.71,57.47 90.11,57.35 90.5,57.26 90.9,57.21 91.29,57.2 91.68,57.17 92.08,57.08 92.47,56.97 92.87,56.92 93.26,56.91 93.65,56.88 94.05,56.81 94.44,56.73 94.84,56.65 95.23,56.6 95.63,56.56 96.02,56.51 96.41,56.48 96.81,56.44 97.2,56.37 97.6,56.3 97.99,56.23 98.38,56.18 98.78,56.13 99.17,56.1 99.57,56.06 99.96,56 100.36,55.94 100.75,55.92 101.14,55.92 101.54,55.93 101.93,55.92 102.33,55.88 102.72,55.82 103.11,55.77 103.51,55.72 103.9,55.67 104.3,55.63 104.69,55.59 105.08,55.57 105.48,55.56 105.87,55.56 106.27,55.56 106.66,55.53 107.06,55.5 107.45,55.46 107.84,55.42 108.24,55.38 108.63,55.36 109.03,55.36 109.42,55.38 109.81,55.4 110.21,55.4 110.6,55.37 111,55.33 111.39,55.29 111.79,55.25 112.18,55.22 112.57,55.21 112.97,55.2 113.36,55.2 113.76,55.19 114.15,55.18 114.54,55.16 114.94,55.14 115.33,55.15 115.73,55.16 116.12,55.15 116.52,55.12 116.91,55.1 117.3,55.09 117.7,55.07 118.09,55.04 118.49,55.01 118.88,54.99 119.27,54.98 119.67,54.96 120.06,54.95 120.46,54.96 120.85,54.98 121.24,54.97 121.64,54.94 122.03,54.89 122.43,54.85 122.82,54.83 123.22,54.81 123.61,54.8 124,54.79 124.4,54.79 124.79,54.8 125.19,54.8 125.58,54.78 125.97,54.77 126.37,54.75 126.76,54.75 127.16,54.77 127.55,54.77 127.95,54.76 128.34,54.75 128.73,54.73 129.13,54.72 129.52,54.7 129.92,54.7 130.31,54.7 130.7,54.7 131.1,54.69 131.49,54.69 131.89,54.69 132.28,54.68 132.67,54.66 133.07,54.64 133.46,54.63 133.86,54.64 134.25,54.64 134.65,54.63 135.04,54.61 135.43,54.58 135.83,54.56 136.22,54.55 136.62,54.55 137.01,54.55 137.4,54.54 137.8,54.53 138.19,54.53 138.59,54.52 138.98,54.51 139.38,54.51 139.77,54.5 140.16,54.49 140.56,54.48 140.95,54.48 141.35,54.49 141.74,54.51 142.13,54.53 142.53,54.52 142.92,54.5 143.32,54.47 143.71,54.45 144.11,54.43 144.5,54.44 144.89,54.46 145.29,54.48 145.68,54.48 146.08,54.46 146.47,54.44 146.86,54.42 147.26,54.41 147.65,54.41 148.05,54.42 148.44,54.41 148.83,54.41 149.23,54.41 149.62,54.4 150.02,54.39 150.41,54.4 150.81,54.41 151.2,54.42 151.59,54.41 151.99,54.4 152.38,54.4 152.78,54.4 153.17,54.39 153.56,54.38 153.96,54.37 154.35,54.38 154.75,54.39 155.14,54.39 155.54,54.39 155.93,54.38 156.32,54.37 156.72,54.37 157.11,54.37 157.51,54.38 157.9,54.37 158.29,54.35 158.69,54.33 159.08,54.33 159.48,54.33 159.87,54.34 160.27,54.34 160.66,54.34 161.05,54.34 161.45,54.35 161.84,54.33 162.24,54.32 162.63,54.31 163.02,54.3 163.42,54.3 163.81,54.28 164.21,54.27 164.6,54.28 164.99,54.29 165.39,54.3 165.78,54.3 166.18,54.29 166.57,54.29 166.97,54.28 167.36,54.28 167.75,54.28 168.15,54.28 168.54,54.27 168.94,54.27 169.33,54.27 169.72,54.26 170.12,54.27 170.51,54.27 170.91,54.27 171.3,54.27 171.7,54.28 172.09,54.27 172.48,54.26 172.88,54.25 173.27,54.25 173.67,54.26 174.06,54.26 174.45,54.26 174.85,54.24 175.24,54.23 175.64,54.22 176.03,54.22 176.43,54.22 176.82,54.22 177.21,54.22 177.61,54.22 178,54.22 178.4,54.21 178.79,54.21 179.18,54.21 179.58,54.21 179.97,54.21 180.37,54.21 180.76,54.21 181.15,54.21 181.55,54.21 181.94,54.21 182.34,54.21 182.73,54.2 183.13,54.19 183.52,54.17 183.91,54.17 184.31,54.18 184.7,54.18 185.1,54.18 185.49,54.18 185.88,54.18 186.28,54.19 186.67,54.19 187.07,54.18 187.46,54.18 187.86,54.18 188.25,54.19 188.64,54.2 189.04,54.2 189.43,54.2 189.83,54.19 190.22,54.17 190.61,54.16 191.01,54.16 191.4,54.16 191.8,54.15 192.19,54.16 192.58,54.17 192.98,54.18 193.37,54.16 193.77,54.15 194.16,54.15 194.56,54.15 194.95,54.14 195.34,54.14 195.74,54.15 196.13,54.15 196.53,54.16 196.92,54.16 197.31,54.16 197.71,54.16 198.1,54.15 198.5,54.15 198.89,54.15 199.29,54.16 199.68,54.16 200.07,54.15 200.47,54.15 200.86,54.16 201.26,54.16 201.65,54.15 202.04,54.14 202.44,54.14 202.83,54.13 203.23,54.13 203.62,54.13 204.02,54.13 204.41,54.14 204.8,54.14 205.2,54.14 205.59,54.13 205.99,54.13 206.38,54.13 206.77,54.13 207.17,54.13 207.56,54.12 207.96,54.12 208.35,54.13 208.74,54.13 209.14,54.13 209.53,54.14 209.93,54.14 210.32,54.14 210.72,54.14 211.11,54.13 211.5,54.12 211.9,54.12 212.29,54.11 212.69,54.11 213.08,54.1 213.47,54.09 213.87,54.09 214.26,54.09 214.66,54.09 215.05,54.1 215.45,54.1 215.84,54.09 216.23,54.09 216.63,54.1 217.02,54.1 217.42,54.11 217.81,54.1 218.2,54.09 218.6,54.08 218.99,54.09 219.39,54.1 219.78,54.11 220.18,54.12 220.57,54.12 220.96,54.13 221.36,54.13 221.75,54.12 222.15,54.1 222.54,54.09 222.93,54.08 223.33,54.08 223.72,54.09 224.12,54.1 224.51,54.1 224.9,54.11 225.3,54.11 225.69,54.1 226.09,54.1 226.48,54.11 226.88,54.1 227.27,54.1 227.66,54.1 228.06,54.1 228.45,54.1 228.85,54.1 229.24,54.1 229.63,54.1 230.03,54.09 230.42,54.08 230.82,54.09 231.21,54.09 231.61,54.09 232,54.09 232.39,54.09 232.79,54.09 233.18,54.09 233.58,54.1 233.97,54.09 234.36,54.09 234.76,54.08 235.15,54.07 235.55,54.07 235.94,54.08 236.33,54.08 236.73,54.08 237.12,54.08 237.52,54.08 237.91,54.09 238.31,54.09 238.7,54.08 239.09,54.07 239.49,54.06 239.88,54.06 240.28,54.06 240.67,54.07 241.06,54.08 241.46,54.08 241.85,54.08 242.25,54.07 242.64,54.06 243.04,54.06 243.43,54.06 243.82,54.06 244.22,54.06 244.61,54.06 245.01,54.05 245.4,54.05 245.79,54.04 246.19,54.06 246.58,54.07 246.98,54.07 247.37,54.07 247.77,54.06 248.16,54.06 248.55,54.07 248.95,54.07 249.34,54.06 249.74,54.06 250.13,54.07 250.52,54.06 250.92,54.06 251.31,54.06 251.71,54.06 252.1,54.05 252.49,54.04 252.89,54.04 253.28,54.04 253.68,54.05 254.07,54.06 254.47,54.07 254.86,54.06 255.25,54.06 255.65,54.05 256.04,54.05 256.44,54.06 256.83,54.07 257.22,54.07 257.62,54.07 258.01,54.06 258.41,54.05 258.8,54.04 259.2,54.03 259.59,54.02 259.98,53.99 260.38,53.98 260.77,53.97 261.17,53.97" stroke-dasharray="none" stroke="rgb(31,120,180)" stroke-width="0.75" opacity="1" stroke-opacity="1" fill="none"/>
          </g>
          <g id="Fig:densplot_01.xyplot.lines.group.11.panel.1.1.1">
            <polyline id="Fig:densplot_01.xyplot.lines.group.11.panel.1.1.1.1" points="59.85,53.97 60.24,53.97 60.63,54 61.03,54.5 61.42,58.16 61.81,72.96 62.2,107.93 62.6,158.07 62.99,201.89 63.38,222.22 63.78,217.97 64.17,200.06 64.56,178.63 64.96,159 65.35,142.98 65.74,129.99 66.14,119.43 66.53,111.01 66.92,104.06 67.31,98.21 67.71,93.26 68.1,88.98 68.49,85.34 68.89,82.37 69.28,79.75 69.67,77.29 70.07,75.24 70.46,73.62 70.85,72.27 71.24,70.85 71.64,69.52 72.03,68.52 72.42,67.67 72.82,66.9 73.21,66.2 73.6,65.48 74,64.81 74.39,64.17 74.78,63.56 75.17,63.11 75.57,62.69 75.96,62.28 76.35,61.99 76.75,61.69 77.14,61.31 77.53,60.89 77.93,60.54 78.32,60.23 78.71,59.95 79.1,59.74 79.5,59.61 79.89,59.49 80.28,59.31 80.68,59.1 81.07,58.89 81.46,58.64 81.86,58.41 82.25,58.26 82.64,58.12 83.03,57.91 83.43,57.71 83.82,57.6 84.21,57.56 84.61,57.42 85,57.29 85.39,57.17 85.79,57.13 86.18,57.1 86.57,56.98 86.96,56.88 87.36,56.82 87.75,56.74 88.14,56.72 88.54,56.69 88.93,56.6 89.32,56.48 89.72,56.39 90.11,56.3 90.5,56.24 90.89,56.2 91.29,56.17 91.68,56.12 92.07,56.07 92.47,56.05 92.86,55.95 93.25,55.89 93.65,55.88 94.04,55.8 94.43,55.72 94.82,55.68 95.22,55.71 95.61,55.7 96,55.66 96.4,55.63 96.79,55.57 97.18,55.54 97.58,55.53 97.97,55.51 98.36,55.45 98.75,55.41 99.15,55.38 99.54,55.36 99.93,55.37 100.33,55.4 100.72,55.38 101.11,55.32 101.51,55.25 101.9,55.19 102.29,55.15 102.68,55.13 103.08,55.13 103.47,55.1 103.86,55.1 104.26,55.11 104.65,55.09 105.04,55.06 105.44,55.05 105.83,55.04 106.22,54.98 106.62,54.94 107.01,54.94 107.4,54.93 107.79,54.89 108.19,54.87 108.58,54.86 108.97,54.87 109.37,54.88 109.76,54.87 110.15,54.84 110.55,54.81 110.94,54.78 111.33,54.73 111.72,54.72 112.12,54.74 112.51,54.75 112.9,54.74 113.3,54.74 113.69,54.74 114.08,54.73 114.48,54.72 114.87,54.7 115.26,54.66 115.65,54.63 116.05,54.65 116.44,54.66 116.83,54.64 117.23,54.61 117.62,54.61 118.01,54.62 118.41,54.62 118.8,54.61 119.19,54.58 119.58,54.56 119.98,54.54 120.37,54.53 120.76,54.56 121.16,54.56 121.55,54.54 121.94,54.53 122.34,54.52 122.73,54.51 123.12,54.5 123.51,54.49 123.91,54.49 124.3,54.49 124.69,54.51 125.09,54.51 125.48,54.46 125.87,54.45 126.27,54.41 126.66,54.41 127.05,54.44 127.44,54.43 127.84,54.43 128.23,54.43 128.62,54.45 129.02,54.44 129.41,54.41 129.8,54.41 130.2,54.43 130.59,54.41 130.98,54.39 131.37,54.39 131.77,54.37 132.16,54.34 132.55,54.33 132.95,54.36 133.34,54.39 133.73,54.39 134.13,54.38 134.52,54.35 134.91,54.35 135.3,54.36 135.7,54.36 136.09,54.34 136.48,54.32 136.88,54.31 137.27,54.31 137.66,54.31 138.06,54.3 138.45,54.28 138.84,54.28 139.23,54.29 139.63,54.3 140.02,54.3 140.41,54.31 140.81,54.3 141.2,54.29 141.59,54.28 141.99,54.27 142.38,54.29 142.77,54.29 143.16,54.28 143.56,54.27 143.95,54.27 144.34,54.27 144.74,54.27 145.13,54.28 145.52,54.29 145.92,54.28 146.31,54.26 146.7,54.25 147.1,54.25 147.49,54.24 147.88,54.25 148.27,54.27 148.67,54.28 149.06,54.27 149.45,54.24 149.85,54.23 150.24,54.23 150.63,54.23 151.03,54.23 151.42,54.23 151.81,54.22 152.2,54.22 152.6,54.21 152.99,54.21 153.38,54.2 153.78,54.21 154.17,54.21 154.56,54.21 154.96,54.19 155.35,54.18 155.74,54.2 156.13,54.2 156.53,54.18 156.92,54.2 157.31,54.21 157.71,54.21 158.1,54.2 158.49,54.2 158.89,54.17 159.28,54.15 159.67,54.15 160.06,54.18 160.46,54.2 160.85,54.2 161.24,54.2 161.64,54.18 162.03,54.17 162.42,54.16 162.82,54.15 163.21,54.14 163.6,54.14 163.99,54.16 164.39,54.17 164.78,54.18 165.17,54.18 165.57,54.18 165.96,54.16 166.35,54.14 166.75,54.14 167.14,54.14 167.53,54.14 167.92,54.15 168.32,54.14 168.71,54.14 169.1,54.13 169.5,54.12 169.89,54.13 170.28,54.12 170.68,54.12 171.07,54.12 171.46,54.13 171.85,54.15 172.25,54.16 172.64,54.15 173.03,54.15 173.43,54.15 173.82,54.15 174.21,54.14 174.61,54.15 175,54.15 175.39,54.14 175.78,54.13 176.18,54.13 176.57,54.14 176.96,54.15 177.36,54.15 177.75,54.14 178.14,54.12 178.54,54.12 178.93,54.12 179.32,54.11 179.71,54.12 180.11,54.13 180.5,54.13 180.89,54.12 181.29,54.11 181.68,54.11 182.07,54.12 182.47,54.12 182.86,54.1 183.25,54.1 183.64,54.1 184.04,54.11 184.43,54.11 184.82,54.11 185.22,54.11 185.61,54.11 186,54.1 186.4,54.11 186.79,54.11 187.18,54.11 187.58,54.12 187.97,54.11 188.36,54.1 188.75,54.1 189.15,54.11 189.54,54.11 189.93,54.11 190.33,54.09 190.72,54.07 191.11,54.08 191.51,54.08 191.9,54.08 192.29,54.07 192.68,54.07 193.08,54.07 193.47,54.09 193.86,54.1 194.26,54.09 194.65,54.08 195.04,54.08 195.44,54.08 195.83,54.09 196.22,54.09 196.61,54.08 197.01,54.1 197.4,54.11 197.79,54.1 198.19,54.08 198.58,54.07 198.97,54.08 199.37,54.08 199.76,54.09 200.15,54.09 200.54,54.1 200.94,54.1 201.33,54.08 201.72,54.07 202.12,54.07 202.51,54.08 202.9,54.07 203.3,54.07 203.69,54.08 204.08,54.09 204.47,54.08 204.87,54.07 205.26,54.06 205.65,54.06 206.05,54.06 206.44,54.06 206.83,54.06 207.23,54.06 207.62,54.06 208.01,54.06 208.4,54.06 208.8,54.06 209.19,54.06 209.58,54.06 209.98,54.06 210.37,54.05 210.76,54.05 211.16,54.06 211.55,54.07 211.94,54.07 212.33,54.07 212.73,54.06 213.12,54.06 213.51,54.06 213.91,54.07 214.3,54.07 214.69,54.06 215.09,54.05 215.48,54.04 215.87,54.05 216.26,54.06 216.66,54.07 217.05,54.07 217.44,54.07 217.84,54.07 218.23,54.07 218.62,54.07 219.02,54.06 219.41,54.05 219.8,54.05 220.19,54.05 220.59,54.04 220.98,54.04 221.37,54.04 221.77,54.05 222.16,54.05 222.55,54.06 222.95,54.06 223.34,54.05 223.73,54.05 224.12,54.05 224.52,54.07 224.91,54.07 225.3,54.06 225.7,54.06 226.09,54.05 226.48,54.04 226.88,54.04 227.27,54.04 227.66,54.04 228.06,54.05 228.45,54.06 228.84,54.05 229.23,54.04 229.63,54.04 230.02,54.04 230.41,54.04 230.81,54.05 231.2,54.05 231.59,54.05 231.99,54.06 232.38,54.07 232.77,54.06 233.16,54.05 233.56,54.04 233.95,54.05 234.34,54.05 234.74,54.05 235.13,54.05 235.52,54.05 235.92,54.06 236.31,54.06 236.7,54.05 237.09,54.05 237.49,54.05 237.88,54.04 238.27,54.05 238.67,54.05 239.06,54.05 239.45,54.04 239.85,54.04 240.24,54.05 240.63,54.04 241.02,54.04 241.42,54.04 241.81,54.03 242.2,54.03 242.6,54.03 242.99,54.03 243.38,54.03 243.78,54.03 244.17,54.04 244.56,54.05 244.95,54.05 245.35,54.05 245.74,54.04 246.13,54.03 246.53,54.02 246.92,54.02 247.31,54.03 247.71,54.03 248.1,54.04 248.49,54.05 248.88,54.05 249.28,54.04 249.67,54.03 250.06,54.03 250.46,54.03 250.85,54.03 251.24,54.02 251.64,54.02 252.03,54.02 252.42,54.03 252.81,54.03 253.21,54.02 253.6,54.03 253.99,54.03 254.39,54.03 254.78,54.02 255.17,54.02 255.57,54.02 255.96,54.02 256.35,54.03 256.74,54.04 257.14,54.04 257.53,54.03 257.92,54.02 258.32,54.02 258.71,54.02 259.1,54.03 259.5,54.02 259.89,54 260.28,53.97 260.67,53.97" stroke-dasharray="none" stroke="rgb(31,120,180)" stroke-width="0.75" opacity="1" stroke-opacity="1" fill="none"/>
          </g>
          <g id="Fig:densplot_01.xyplot.lines.group.12.panel.1.1.1">
            <polyline id="Fig:densplot_01.xyplot.lines.group.12.panel.1.1.1.1" points="60.04,53.97 60.43,53.98 60.82,54.17 61.21,55.47 61.61,61.05 62,76.51 62.39,105.39 62.79,142.71 63.18,175.68 63.57,193.33 63.97,194.3 64.36,184.47 64.75,170.4 65.14,156.07 65.54,143.14 65.93,131.92 66.32,122.41 66.72,114.41 67.11,107.58 67.5,101.82 67.89,96.91 68.29,92.68 68.68,89.14 69.07,86.07 69.47,83.37 69.86,81.07 70.25,79.04 70.64,77.09 71.04,75.33 71.43,73.96 71.82,72.81 72.22,71.68 72.61,70.65 73,69.73 73.4,68.77 73.79,67.81 74.18,66.96 74.57,66.22 74.97,65.55 75.36,64.84 75.75,64.15 76.15,63.68 76.54,63.3 76.93,62.86 77.32,62.51 77.72,62.15 78.11,61.73 78.5,61.35 78.9,61.12 79.29,60.9 79.68,60.56 80.07,60.24 80.47,59.98 80.86,59.75 81.25,59.5 81.65,59.28 82.04,59.14 82.43,58.98 82.83,58.79 83.22,58.63 83.61,58.48 84,58.36 84.4,58.27 84.79,58.18 85.18,58.02 85.58,57.83 85.97,57.66 86.36,57.5 86.75,57.35 87.15,57.25 87.54,57.17 87.93,57.1 88.33,57.05 88.72,56.99 89.11,56.89 89.5,56.76 89.9,56.65 90.29,56.6 90.68,56.56 91.08,56.48 91.47,56.4 91.86,56.33 92.26,56.24 92.65,56.19 93.04,56.21 93.43,56.23 93.83,56.19 94.22,56.09 94.61,56.02 95.01,55.97 95.4,55.92 95.79,55.87 96.18,55.87 96.58,55.88 96.97,55.87 97.36,55.83 97.76,55.75 98.15,55.65 98.54,55.57 98.94,55.53 99.33,55.48 99.72,55.4 100.11,55.36 100.51,55.38 100.9,55.38 101.29,55.36 101.69,55.32 102.08,55.3 102.47,55.32 102.86,55.32 103.26,55.29 103.65,55.22 104.04,55.21 104.44,55.24 104.83,55.24 105.22,55.2 105.61,55.16 106.01,55.16 106.4,55.16 106.79,55.11 107.19,55.05 107.58,55.01 107.97,55.01 108.37,55.02 108.76,55.01 109.15,55 109.54,55.01 109.94,55 110.33,54.96 110.72,54.93 111.12,54.89 111.51,54.85 111.9,54.85 112.29,54.86 112.69,54.85 113.08,54.83 113.47,54.82 113.87,54.81 114.26,54.8 114.65,54.8 115.04,54.77 115.44,54.73 115.83,54.7 116.22,54.69 116.62,54.69 117.01,54.69 117.4,54.68 117.8,54.66 118.19,54.64 118.58,54.65 118.97,54.67 119.37,54.67 119.76,54.63 120.15,54.61 120.55,54.63 120.94,54.6 121.33,54.56 121.72,54.55 122.12,54.54 122.51,54.53 122.9,54.52 123.3,54.53 123.69,54.55 124.08,54.58 124.47,54.57 124.87,54.53 125.26,54.5 125.65,54.48 126.05,54.47 126.44,54.48 126.83,54.49 127.23,54.48 127.62,54.48 128.01,54.5 128.4,54.49 128.8,54.46 129.19,54.43 129.58,54.43 129.98,54.43 130.37,54.43 130.76,54.4 131.15,54.39 131.55,54.4 131.94,54.4 132.33,54.4 132.73,54.39 133.12,54.39 133.51,54.39 133.9,54.39 134.3,54.39 134.69,54.36 135.08,54.35 135.48,54.35 135.87,54.34 136.26,54.33 136.66,54.33 137.05,54.33 137.44,54.33 137.83,54.33 138.23,54.34 138.62,54.34 139.01,54.34 139.41,54.33 139.8,54.32 140.19,54.29 140.58,54.27 140.98,54.29 141.37,54.32 141.76,54.34 142.16,54.32 142.55,54.3 142.94,54.28 143.33,54.28 143.73,54.29 144.12,54.29 144.51,54.28 144.91,54.26 145.3,54.27 145.69,54.28 146.09,54.29 146.48,54.28 146.87,54.29 147.26,54.29 147.66,54.27 148.05,54.26 148.44,54.25 148.84,54.26 149.23,54.26 149.62,54.25 150.01,54.24 150.41,54.23 150.8,54.23 151.19,54.23 151.59,54.23 151.98,54.24 152.37,54.25 152.76,54.24 153.16,54.22 153.55,54.22 153.94,54.22 154.34,54.21 154.73,54.2 155.12,54.19 155.52,54.21 155.91,54.22 156.3,54.22 156.69,54.2 157.09,54.19 157.48,54.18 157.87,54.19 158.27,54.2 158.66,54.2 159.05,54.18 159.44,54.18 159.84,54.19 160.23,54.18 160.62,54.18 161.02,54.18 161.41,54.2 161.8,54.21 162.19,54.2 162.59,54.2 162.98,54.21 163.37,54.21 163.77,54.2 164.16,54.19 164.55,54.2 164.95,54.2 165.34,54.19 165.73,54.17 166.12,54.16 166.52,54.14 166.91,54.13 167.3,54.14 167.7,54.15 168.09,54.15 168.48,54.14 168.87,54.12 169.27,54.12 169.66,54.12 170.05,54.13 170.45,54.15 170.84,54.17 171.23,54.16 171.63,54.15 172.02,54.16 172.41,54.16 172.8,54.15 173.2,54.15 173.59,54.15 173.98,54.15 174.38,54.14 174.77,54.13 175.16,54.13 175.55,54.14 175.95,54.14 176.34,54.14 176.73,54.13 177.13,54.13 177.52,54.13 177.91,54.13 178.3,54.12 178.7,54.12 179.09,54.12 179.48,54.13 179.88,54.13 180.27,54.12 180.66,54.13 181.06,54.13 181.45,54.13 181.84,54.13 182.23,54.12 182.63,54.11 183.02,54.1 183.41,54.1 183.81,54.11 184.2,54.11 184.59,54.1 184.98,54.11 185.38,54.11 185.77,54.1 186.16,54.09 186.56,54.08 186.95,54.08 187.34,54.09 187.73,54.09 188.13,54.08 188.52,54.08 188.91,54.08 189.31,54.08 189.7,54.1 190.09,54.1 190.49,54.1 190.88,54.1 191.27,54.1 191.66,54.09 192.06,54.08 192.45,54.09 192.84,54.09 193.24,54.08 193.63,54.08 194.02,54.08 194.41,54.08 194.81,54.09 195.2,54.09 195.59,54.09 195.99,54.08 196.38,54.08 196.77,54.08 197.16,54.09 197.56,54.09 197.95,54.1 198.34,54.1 198.74,54.08 199.13,54.07 199.52,54.07 199.92,54.07 200.31,54.07 200.7,54.07 201.09,54.07 201.49,54.07 201.88,54.06 202.27,54.06 202.67,54.06 203.06,54.07 203.45,54.06 203.84,54.05 204.24,54.05 204.63,54.04 205.02,54.06 205.42,54.07 205.81,54.07 206.2,54.06 206.59,54.06 206.99,54.06 207.38,54.07 207.77,54.09 208.17,54.09 208.56,54.08 208.95,54.07 209.35,54.07 209.74,54.07 210.13,54.06 210.52,54.06 210.92,54.06 211.31,54.07 211.7,54.07 212.1,54.07 212.49,54.06 212.88,54.06 213.27,54.06 213.67,54.04 214.06,54.05 214.45,54.06 214.85,54.07 215.24,54.06 215.63,54.05 216.02,54.04 216.42,54.05 216.81,54.05 217.2,54.05 217.6,54.04 217.99,54.04 218.38,54.06 218.78,54.07 219.17,54.07 219.56,54.08 219.95,54.07 220.35,54.06 220.74,54.04 221.13,54.04 221.53,54.04 221.92,54.05 222.31,54.05 222.7,54.06 223.1,54.06 223.49,54.06 223.88,54.05 224.28,54.05 224.67,54.05 225.06,54.05 225.45,54.05 225.85,54.05 226.24,54.06 226.63,54.06 227.03,54.06 227.42,54.06 227.81,54.05 228.21,54.05 228.6,54.04 228.99,54.04 229.38,54.04 229.78,54.04 230.17,54.04 230.56,54.04 230.96,54.04 231.35,54.04 231.74,54.04 232.13,54.04 232.53,54.05 232.92,54.05 233.31,54.04 233.71,54.04 234.1,54.04 234.49,54.05 234.89,54.06 235.28,54.06 235.67,54.06 236.06,54.06 236.46,54.05 236.85,54.04 237.24,54.03 237.64,54.03 238.03,54.03 238.42,54.03 238.81,54.04 239.21,54.05 239.6,54.05 239.99,54.05 240.39,54.03 240.78,54.03 241.17,54.03 241.56,54.04 241.96,54.03 242.35,54.02 242.74,54.02 243.14,54.03 243.53,54.04 243.92,54.03 244.32,54.02 244.71,54.03 245.1,54.02 245.49,54.02 245.89,54.03 246.28,54.03 246.67,54.03 247.07,54.04 247.46,54.03 247.85,54.03 248.24,54.04 248.64,54.04 249.03,54.04 249.42,54.04 249.82,54.04 250.21,54.04 250.6,54.03 250.99,54.02 251.39,54.03 251.78,54.04 252.17,54.04 252.57,54.04 252.96,54.04 253.35,54.04 253.75,54.04 254.14,54.04 254.53,54.04 254.92,54.04 255.32,54.04 255.71,54.04 256.1,54.04 256.5,54.04 256.89,54.03 257.28,54.03 257.67,54.04 258.07,54.04 258.46,54.04 258.85,54.03 259.25,54.02 259.64,54 260.03,53.98 260.42,53.97 260.82,53.97" stroke-dasharray="none" stroke="rgb(31,120,180)" stroke-width="0.75" opacity="1" stroke-opacity="1" fill="none"/>
          </g>
        </g>
        <g id="Fig:densplot_01.panel.1.1.off.vp.2">
          <g id="Fig:densplot_01.border.panel.1.1.1">
            <rect id="Fig:densplot_01.border.panel.1.1.1.1" x="44.8" y="42.19" width="231.2" height="191.81" transform="" stroke="rgb(0,0,0)" stroke-dasharray="none" stroke-width="0.75" opacity="1" fill="none" stroke-opacity="1" fill-opacity="0"/>
          </g>
        </g>
        <g id="Fig:densplot_01..1"/>
      </g>
    </g>
  </g>
</svg>